<?xml version="1.0" encoding="UTF-8"?>
<svg xmlns="http://www.w3.org/2000/svg" width="600" height="560" xmlns:xlink="http://www.w3.org/1999/xlink" version="1.1" viewBox="0 0 600 560">
  <!-- Generator: Adobe Illustrator 29.0.0, SVG Export Plug-In . SVG Version: 2.1.0 Build 186)  -->
  <defs>
    <style>
      .st0, .st1, .st2 {
        fill: none;
      }

      .st3 {
        fill: #d1d1d1;
      }

      .st3, .st4, .st5, .st6, .st7, .st8 {
        fill-rule: evenodd;
      }

      .st4 {
        fill: #a4a4a4;
      }

      .st1, .st2 {
        stroke: #fff;
        stroke-miterlimit: 10;
      }

      .st5 {
        fill: #929292;
      }

      .st6 {
        fill: gray;
      }

      .st9 {
        fill: #fff;
      }

      .st7 {
        fill: #e7e7e7;
      }

      .st8 {
        fill: #bdbdbd;
      }

      .st2 {
        stroke-linecap: square;
      }

      .st10 {
        clip-path: url(#clippath);
      }
    </style>
    <clipPath id="clippath">
      <path class="st0" d="M306.2,106.3c-95.8,0-173.5,77.7-173.5,173.5s77.7,173.5,173.5,173.5,173.5-77.7,173.5-173.5-77.7-173.5-173.5-173.5ZM306.2,394.9c-63.9,0-115.8-51.8-115.8-115.8s51.8-115.8,115.8-115.8,115.8,51.8,115.8,115.8-51.8,115.8-115.8,115.8Z"/>
    </clipPath>
  </defs>
  <g id="data_-_release_mask_to_edit">
    <g class="st10">
      <g>
        <path class="st6" d="M306.3,280.3l-18.1-172.6c5.6-.6,9.5-.8,15.1-.9l3,173.5Z"/>
        <path class="st5" d="M306.3,280.3l-169.7-36.1c16-75.5,74.9-128.4,151.6-136.5l18.1,172.6Z"/>
        <path class="st4" d="M306.3,280.3l-53.6,165c-84.3-27.4-134.5-114.4-116.1-201.1l169.7,36.1Z"/>
        <path class="st8" d="M306.3,280.3l18.1,172.6c-25.5,2.7-47.3.4-71.8-7.5l53.6-165Z"/>
        <path class="st3" d="M306.3,280.3l173.4-6.1c3.2,91.5-64.3,169.1-155.3,178.6l-18.1-172.6Z"/>
        <path class="st7" d="M306.3,280.3V106.8c94.4,0,170.1,73.1,173.4,167.5l-173.4,6.1Z"/>
      </g>
    </g>
  </g>
  <g id="pointers">
    <path class="st1" d="M410.2,183.5c2.8,0,5-2.2,5-5s-2.3-5-5-5-5,2.2-5,5,2.2,5,5,5h0ZM413.2,173.5l35.6-41.2h40.5"/>
    <g>
      <path class="st1" d="M415.6,378.7c2.8,0,5-2.2,5-5,0-2.8-2.2-5-5-5-2.8,0-5,2.2-5,5,0,2.8,2.2,5,5,5h0Z"/>
      <polyline class="st1" points="417.8 378.7 459.1 432.5 479.7 432.5"/>
    </g>
    <g>
      <path class="st1" d="M285.4,429.5c2,1.9,5.2,1.8,7.1-.3,1.9-2,1.8-5.2-.3-7.1s-5.2-1.8-7.1.3-1.8,5.2.3,7.1h0Z"/>
      <line class="st1" x1="288.8" y1="430.8" x2="288.8" y2="487.5"/>
    </g>
    <g>
      <polyline class="st1" points="174.8 357.2 124.6 383.9 101.7 383.9"/>
      <path class="st1" d="M175.8,358.6c2,1.9,5.2,1.8,7.1-.3s1.8-5.2-.3-7.1c-2-1.9-5.2-1.8-7.1.3s-1.8,5.2.3,7.1h0Z"/>
    </g>
    <g>
      <polyline class="st2" points="201.9 164.3 140.9 127.3 114.4 127.3"/>
      <path class="st1" d="M203.2,171.7c2,1.9,5.2,1.8,7.1-.3s1.8-5.2-.3-7.1-5.2-1.8-7.1.3c-1.9,2-1.8,5.2.3,7.1h0Z"/>
    </g>
  </g>
  <g id="text">
    <g>
      <path class="st9" d="M507.3,129.5c0-.3-.2-.6-.3-.9-.1-.3-.3-.5-.5-.7-.2-.2-.5-.3-.8-.4s-.6-.2-1-.2c-.6,0-1.1.1-1.5.3-.4.2-.8.5-1,.9-.3.4-.5.8-.6,1.3-.1.5-.2,1-.2,1.5s0,1,.2,1.5c.1.5.3.9.6,1.3.3.4.6.7,1,.9.4.2.9.3,1.5.3s.8,0,1.1-.2c.3-.1.6-.3.8-.6.2-.3.4-.6.5-.9s.2-.7.3-1.1h1.8c0,.6-.2,1.2-.4,1.8-.2.5-.6,1-1,1.4-.4.4-.9.7-1.4.9s-1.1.3-1.8.3-1.5-.1-2.2-.4c-.6-.3-1.2-.7-1.6-1.2-.4-.5-.8-1.1-1-1.8-.2-.7-.4-1.4-.4-2.2s.1-1.5.4-2.2c.2-.7.6-1.3,1-1.8.4-.5,1-.9,1.6-1.2.6-.3,1.4-.4,2.2-.4s1.2,0,1.7.2c.5.2,1,.4,1.4.7.4.3.7.7,1,1.1.2.5.4,1,.5,1.5h-1.9Z"/>
      <path class="st9" d="M514.2,137c-.6,0-1.2-.1-1.7-.3-.5-.2-.9-.5-1.2-.8-.3-.4-.6-.8-.8-1.3s-.3-1.1-.3-1.6,0-1.1.3-1.6.4-.9.8-1.3.7-.6,1.2-.8c.5-.2,1-.3,1.7-.3s1.2.1,1.7.3c.5.2.9.5,1.2.8s.6.8.8,1.3.3,1,.3,1.6,0,1.1-.3,1.6-.4.9-.8,1.3c-.3.4-.7.6-1.2.8-.5.2-1,.3-1.7.3ZM514.2,135.6c.4,0,.7,0,1-.2.3-.2.5-.4.7-.6.2-.3.3-.6.4-.9,0-.3.1-.7.1-1s0-.7-.1-1c0-.3-.2-.6-.4-.9-.2-.3-.4-.5-.7-.6-.3-.2-.6-.2-1-.2s-.7,0-1,.2c-.3.2-.5.4-.7.6s-.3.5-.4.9-.1.7-.1,1,0,.7.1,1c0,.3.2.6.4.9.2.3.4.5.7.6.3.2.6.2,1,.2Z"/>
      <path class="st9" d="M519.5,129h1.6v1.1h0c.1-.2.3-.4.4-.5.2-.2.3-.3.5-.4.2-.1.4-.2.6-.3.2,0,.5,0,.8,0,.5,0,.9.1,1.3.3.4.2.7.5.9,1,.3-.4.6-.7,1-.9.4-.2.9-.3,1.4-.3.8,0,1.5.2,1.9.6.5.4.7,1.1.7,2v5.4h-1.7v-4.5c0-.3,0-.6,0-.8,0-.3,0-.5-.2-.7s-.2-.3-.4-.4c-.2-.1-.5-.2-.8-.2-.6,0-1,.2-1.3.5-.3.4-.4.9-.4,1.5v4.5h-1.7v-5c0-.5,0-.9-.3-1.2-.2-.3-.6-.4-1.1-.4s-.4,0-.6.1-.4.2-.5.4-.3.4-.4.6c0,.2-.1.5-.1.9v4.6h-1.7v-7.8Z"/>
      <path class="st9" d="M532.6,129h1.6v1.1h0c.1-.2.3-.4.4-.5.2-.2.3-.3.5-.4.2-.1.4-.2.6-.3.2,0,.5,0,.8,0,.5,0,.9.1,1.3.3.4.2.7.5.9,1,.3-.4.6-.7,1-.9.4-.2.9-.3,1.4-.3.8,0,1.5.2,1.9.6.5.4.7,1.1.7,2v5.4h-1.7v-4.5c0-.3,0-.6,0-.8,0-.3,0-.5-.2-.7s-.2-.3-.4-.4c-.2-.1-.5-.2-.8-.2-.6,0-1,.2-1.3.5-.3.4-.4.9-.4,1.5v4.5h-1.7v-5c0-.5,0-.9-.3-1.2-.2-.3-.6-.4-1.1-.4s-.4,0-.6.1-.4.2-.5.4-.3.4-.4.6c0,.2-.1.5-.1.9v4.6h-1.7v-7.8Z"/>
      <path class="st9" d="M547,133.3c0,.3,0,.6.1.9s.2.5.4.7c.2.2.4.4.6.5.3.1.6.2.9.2s.9-.1,1.2-.3c.3-.2.5-.5.7-1h1.6c0,.4-.2.8-.5,1.1-.2.3-.5.6-.8.8-.3.2-.7.4-1,.5s-.8.2-1.2.2c-.6,0-1.1-.1-1.6-.3-.5-.2-.9-.5-1.2-.8-.3-.4-.6-.8-.7-1.3-.2-.5-.2-1-.2-1.6s0-1.1.3-1.6.4-.9.8-1.3.7-.7,1.2-.9c.5-.2,1-.3,1.6-.3s1.2.1,1.6.4.9.6,1.2,1c.3.4.6.9.7,1.4.1.5.2,1.1.1,1.7h-5.7ZM551,132.2c0-.3,0-.5-.2-.8,0-.2-.2-.5-.4-.7-.2-.2-.4-.3-.6-.4-.2-.1-.5-.2-.8-.2s-.6,0-.8.2-.5.2-.6.4-.3.4-.4.7c-.1.2-.2.5-.2.8h4Z"/>
      <path class="st9" d="M554,129h1.6v1.5h0c0-.2.1-.4.3-.6.1-.2.3-.4.5-.5s.4-.3.7-.4.5-.1.8-.1.3,0,.4,0c0,0,.2,0,.2,0v1.6c-.1,0-.2,0-.4,0-.1,0-.2,0-.4,0-.3,0-.6,0-.8.2s-.5.3-.7.5c-.2.2-.3.5-.5.8-.1.3-.2.7-.2,1.1v3.7h-1.7v-7.8Z"/>
      <path class="st9" d="M564.2,131.6c0-.5-.3-.8-.6-1.1-.3-.2-.7-.4-1.2-.4s-.5,0-.7.1c-.2,0-.5.2-.7.4-.2.2-.4.5-.5.9-.1.4-.2.8-.2,1.4s0,.6.1,1c0,.3.2.6.4.9s.4.5.6.6c.3.2.6.2.9.2s.9-.2,1.2-.5c.3-.3.5-.7.6-1.3h1.7c-.2,1-.5,1.8-1.1,2.3-.6.5-1.4.8-2.4.8s-1.1-.1-1.6-.3c-.5-.2-.9-.5-1.2-.8s-.6-.8-.7-1.3c-.2-.5-.2-1-.2-1.6s0-1.1.2-1.6c.2-.5.4-1,.7-1.3.3-.4.7-.7,1.2-.9.5-.2,1-.3,1.7-.3s.9,0,1.3.2c.4.1.8.3,1.1.5.3.2.6.5.8.9s.3.8.4,1.2h-1.7Z"/>
      <path class="st9" d="M567.4,126.1h1.7v1.6h-1.7v-1.6ZM567.4,129h1.7v7.8h-1.7v-7.8Z"/>
      <path class="st9" d="M577.4,135c0,.2,0,.4,0,.5,0,0,.2.1.3.1h.2c0,0,.1,0,.2,0v1.2c0,0-.1,0-.2,0,0,0-.2,0-.3,0-.1,0-.2,0-.3,0-.1,0-.2,0-.3,0-.4,0-.6,0-.9-.2-.2-.1-.4-.4-.5-.7-.3.3-.8.6-1.3.7s-1,.2-1.4.2-.7,0-1-.1c-.3,0-.6-.2-.8-.4-.2-.2-.4-.4-.6-.7-.1-.3-.2-.6-.2-1s0-.9.3-1.2c.2-.3.4-.5.7-.7.3-.2.6-.3,1-.4.4,0,.7-.1,1.1-.2.3,0,.6-.1.9-.1.3,0,.5,0,.7-.1s.4-.2.5-.3.2-.3.2-.6,0-.4-.2-.5c-.1-.1-.2-.2-.4-.3-.2,0-.3-.1-.5-.1-.2,0-.4,0-.5,0-.5,0-.9.1-1.2.3-.3.2-.5.5-.5.9h-1.7c0-.5.1-.9.4-1.2s.5-.6.8-.8.7-.3,1.1-.4c.4,0,.8-.1,1.3-.1s.8,0,1.1.1c.4,0,.7.2,1,.4.3.2.5.4.7.7.2.3.3.6.3,1v4ZM575.7,132.9c-.3.2-.6.3-1,.3-.4,0-.8,0-1.1.2-.2,0-.4,0-.5.1-.2,0-.3.1-.5.2s-.2.2-.3.4-.1.3-.1.6,0,.4.2.5c.1.1.2.2.4.3.2,0,.3.1.5.2.2,0,.4,0,.5,0s.4,0,.6,0c.2,0,.4-.1.6-.3.2-.1.4-.3.5-.5.1-.2.2-.4.2-.7v-1.3Z"/>
      <path class="st9" d="M579.3,126.1h1.7v10.7h-1.7v-10.7Z"/>
      <path class="st9" d="M501.2,158.1c.4.4.9.6,1.5.7v-4c-.5-.1-1-.3-1.4-.4-.4-.2-.7-.3-1-.6s-.4-.5-.6-.8-.2-.7-.2-1.1,0-.9.2-1.2.4-.7.7-1,.6-.5,1-.7c.4-.2.8-.3,1.2-.3v-1h.8v1c.8.1,1.5.4,1.9.9.5.5.8,1.2,1,2.1h-1.3c-.2-1-.8-1.6-1.7-1.7v3.7l.9.2c.2,0,.4.1.7.3.3.1.5.3.8.5.2.2.5.5.6.8s.3.7.3,1.2,0,.9-.2,1.3-.4.7-.7,1-.6.5-1,.7c-.4.2-.8.3-1.3.3v1.2h-.8v-1.2c-1-.1-1.8-.4-2.4-1-.6-.6-.9-1.4-1-2.5h1.3c0,.7.2,1.2.6,1.6ZM501.5,150.5c-.3.3-.5.7-.5,1.3s0,.5.1.7c0,.2.2.3.4.5s.3.2.5.3c.2,0,.4.2.7.2v-3.5c-.5,0-.9.2-1.2.5ZM504.3,158.7c.2,0,.4-.2.6-.4.2-.2.3-.4.4-.6,0-.2.1-.5.1-.8s0-.5-.1-.7c-.1-.2-.2-.4-.4-.5-.2-.1-.4-.3-.6-.4-.2,0-.5-.2-.8-.3v3.8c.3,0,.5,0,.8-.2Z"/>
      <path class="st9" d="M510.7,153.7h.4c.3,0,.5,0,.8-.1.2,0,.5-.2.6-.3.2-.1.3-.3.4-.5.1-.2.2-.5.2-.8,0-.6-.2-1-.5-1.3-.4-.3-.8-.4-1.3-.4s-.6,0-.9.2-.5.3-.6.5-.3.5-.4.7c0,.3-.1.6-.1.9h-1.3c0-.5.1-1,.2-1.4.1-.4.4-.8.6-1.1.3-.3.6-.5,1-.7.4-.2.9-.3,1.4-.3s.9,0,1.3.2c.4.1.7.3,1,.5s.5.5.7.9.2.8.2,1.3-.1.9-.4,1.3c-.3.4-.6.6-1,.8h0c.7.2,1.1.5,1.4.9.3.5.5,1,.5,1.7s0,1-.3,1.4c-.2.4-.5.7-.8,1-.3.3-.7.5-1.2.6-.4.1-.9.2-1.4.2s-1,0-1.5-.2c-.4-.1-.8-.4-1.1-.7-.3-.3-.5-.7-.7-1.1-.2-.4-.2-.9-.2-1.5h1.3c0,.7.2,1.3.6,1.7.4.4.9.7,1.7.7s.6,0,.9-.1c.3,0,.5-.2.7-.4.2-.2.4-.4.5-.6.1-.3.2-.5.2-.9s0-.6-.2-.9-.3-.5-.5-.6-.4-.3-.7-.4c-.3,0-.6-.1-.9-.1s-.5,0-.8,0v-1.1s0,0,.1,0Z"/>
      <path class="st9" d="M518.5,158.1v1.7h-1.7v-1.7h1.7Z"/>
      <path class="st9" d="M523.2,153.7h.4c.3,0,.5,0,.8-.1.2,0,.5-.2.6-.3.2-.1.3-.3.4-.5.1-.2.2-.5.2-.8,0-.6-.2-1-.5-1.3-.4-.3-.8-.4-1.4-.4s-.6,0-.9.2-.5.3-.6.5-.3.5-.4.7c0,.3-.1.6-.1.9h-1.3c0-.5.1-1,.2-1.4.1-.4.4-.8.6-1.1.3-.3.6-.5,1-.7s.9-.3,1.4-.3.9,0,1.3.2c.4.1.7.3,1,.5s.5.5.7.9.2.8.2,1.3-.1.9-.4,1.3c-.3.4-.6.6-1,.8h0c.6.2,1.1.5,1.4.9.3.5.5,1,.5,1.7s0,1-.3,1.4c-.2.4-.5.7-.8,1s-.7.5-1.2.6c-.4.1-.9.2-1.4.2s-1,0-1.5-.2c-.4-.1-.8-.4-1.1-.7-.3-.3-.5-.7-.7-1.1-.2-.4-.2-.9-.2-1.5h1.3c0,.7.2,1.3.6,1.7s.9.7,1.7.7.6,0,.9-.1.5-.2.7-.4c.2-.2.4-.4.5-.6.1-.3.2-.5.2-.9s0-.6-.2-.9-.3-.5-.5-.6c-.2-.2-.4-.3-.7-.4s-.6-.1-.9-.1-.5,0-.8,0v-1.1s0,0,.1,0Z"/>
      <path class="st9" d="M530.4,149.1v4h0c.2-.4.5-.7,1-.9.5-.2.9-.3,1.5-.3s1.1.1,1.6.3c.4.2.8.5,1.1.9s.5.8.7,1.3c.2.5.2,1,.2,1.6s0,1.1-.2,1.6c-.1.5-.4.9-.7,1.3-.3.4-.7.7-1.1.9-.4.2-1,.3-1.6.3s-.4,0-.6,0c-.2,0-.5-.1-.7-.2-.2,0-.4-.2-.7-.4-.2-.2-.4-.3-.5-.6h0v1h-1.3v-10.7h1.3ZM535,154.8c0-.3-.2-.7-.4-.9s-.4-.5-.8-.6c-.3-.2-.7-.2-1.1-.2s-.8,0-1.1.3c-.3.2-.5.4-.7.7-.2.3-.3.6-.4.9,0,.4-.1.7-.1,1.1s0,.7.1,1.1c0,.4.2.7.4.9s.4.5.8.7c.3.2.7.2,1.1.2s.8,0,1.1-.3c.3-.2.5-.4.7-.7.2-.3.3-.6.4-1s.1-.7.1-1.1,0-.7-.1-1.1Z"/>
      <path class="st9" d="M539.2,152v1.2h0c.5-.9,1.4-1.4,2.5-1.4s.9,0,1.3.2c.3.1.6.3.8.6.2.2.4.5.4.9,0,.3.1.7.1,1.1v5.1h-1.3v-5.2c0-.5-.1-.9-.4-1.1-.3-.3-.7-.4-1.2-.4s-.7,0-1,.2-.5.3-.7.5c-.2.2-.3.5-.4.8,0,.3-.1.6-.1,1v4.4h-1.3v-7.8h1.2Z"/>
    </g>
    <g>
      <path class="st9" d="M493.1,428.2h5.1c1.2,0,2.1.3,2.7.8s.9,1.2.9,2.1,0,.9-.2,1.3-.3.6-.5.8-.4.4-.6.4c-.2,0-.3.1-.4.2h0c.2,0,.3,0,.5.2.2,0,.4.2.5.4.2.2.3.4.4.7.1.3.2.6.2,1,0,.6,0,1.2.1,1.7,0,.5.2.9.4,1.1h-2c-.1-.2-.2-.5-.2-.8,0-.3,0-.5,0-.8,0-.5,0-.9,0-1.3,0-.4-.2-.6-.3-.9s-.4-.4-.7-.5-.6-.2-1.1-.2h-2.8v4.4h-1.9v-10.7ZM495,433.1h3.1c.6,0,1.1-.1,1.4-.4.3-.3.5-.7.5-1.3s0-.6-.2-.8c0-.2-.2-.4-.4-.5s-.4-.2-.6-.2-.5,0-.7,0h-3v3.3Z"/>
      <path class="st9" d="M504.7,435.5c0,.3,0,.6.1.9,0,.3.2.5.4.7s.4.4.6.5c.3.1.6.2.9.2s.9-.1,1.2-.3c.3-.2.5-.5.7-1h1.6c0,.4-.2.8-.5,1.1-.2.3-.5.6-.8.8s-.7.4-1,.5c-.4.1-.8.2-1.2.2-.6,0-1.1-.1-1.6-.3-.5-.2-.9-.5-1.2-.8-.3-.4-.6-.8-.7-1.3-.2-.5-.2-1-.2-1.6s0-1.1.3-1.6c.2-.5.4-.9.8-1.3.3-.4.7-.7,1.2-.9.5-.2,1-.3,1.6-.3s1.2.1,1.6.4.9.6,1.2,1c.3.4.6.9.7,1.4.1.5.2,1.1.1,1.7h-5.7ZM508.7,434.4c0-.3,0-.5-.2-.8,0-.2-.2-.5-.4-.7-.2-.2-.4-.3-.6-.4-.2-.1-.5-.2-.8-.2s-.6,0-.8.2c-.2.1-.5.2-.6.4-.2.2-.3.4-.4.7s-.2.5-.2.8h4Z"/>
      <path class="st9" d="M513,436.4c0,.5.2.8.6,1s.7.3,1.2.3.3,0,.5,0c.2,0,.4,0,.6-.1.2,0,.3-.2.4-.3s.2-.3.2-.5,0-.4-.2-.5-.3-.3-.6-.3c-.2,0-.5-.2-.8-.2-.3,0-.6-.1-.9-.2-.3,0-.6-.2-.9-.3s-.6-.2-.8-.4-.4-.4-.6-.7-.2-.6-.2-1,.1-.8.3-1.1c.2-.3.5-.5.8-.7.3-.2.7-.3,1-.4.4,0,.8-.1,1.1-.1s.8,0,1.1.1c.4,0,.7.2,1,.4.3.2.5.4.7.7.2.3.3.7.4,1.1h-1.8c0-.4-.3-.7-.6-.8-.3-.1-.6-.2-1-.2s-.3,0-.4,0c-.2,0-.3,0-.5.1s-.3.1-.4.2c0,.1-.1.2-.1.4s0,.4.2.5c.1.1.3.2.6.3.2,0,.5.2.8.2.3,0,.6.1.9.2.3,0,.6.2.9.3.3.1.6.2.8.4s.4.4.6.6c.1.3.2.6.2,1s-.1.9-.3,1.2c-.2.3-.5.6-.8.8s-.7.3-1.1.4c-.4,0-.8.1-1.2.1s-.9,0-1.4-.2c-.4-.1-.8-.3-1.1-.5-.3-.2-.5-.5-.7-.8s-.3-.7-.3-1.2h1.7Z"/>
      <path class="st9" d="M519.6,428.2h1.7v1.6h-1.7v-1.6ZM519.6,431.2h1.7v7.8h-1.7v-7.8Z"/>
      <path class="st9" d="M530.4,438.9h-1.6v-1h0c-.2.4-.6.8-1,1-.4.2-.9.3-1.4.3s-1.1-.1-1.6-.3c-.5-.2-.8-.5-1.1-.9-.3-.4-.5-.8-.7-1.3s-.2-1-.2-1.6,0-1.3.3-1.8c.2-.5.4-.9.8-1.3s.7-.6,1.1-.7c.4-.2.8-.2,1.2-.2s.5,0,.7,0,.5.1.7.2c.2.1.4.2.6.4s.4.3.5.5h0v-4h1.7v10.7ZM524.5,435.1c0,.3,0,.7.1,1s.2.6.4.9c.2.2.4.4.7.6s.6.2,1,.2.7,0,1-.2.5-.4.7-.6c.2-.3.3-.6.4-.9s.1-.7.1-1c0-.9-.2-1.5-.6-2-.4-.5-.9-.7-1.6-.7s-.7,0-1,.2-.5.4-.7.6-.3.6-.4.9-.1.7-.1,1Z"/>
      <path class="st9" d="M533.6,435.5c0,.3,0,.6.1.9,0,.3.2.5.4.7.2.2.4.4.6.5.3.1.6.2.9.2s.9-.1,1.2-.3.5-.5.7-1h1.6c0,.4-.2.8-.5,1.1-.2.3-.5.6-.8.8-.3.2-.7.4-1,.5-.4.1-.8.2-1.2.2-.6,0-1.2-.1-1.6-.3-.5-.2-.9-.5-1.2-.8-.3-.4-.6-.8-.7-1.3-.2-.5-.2-1-.2-1.6s0-1.1.3-1.6c.2-.5.4-.9.8-1.3.3-.4.7-.7,1.2-.9.5-.2,1-.3,1.6-.3s1.2.1,1.6.4c.5.3.9.6,1.2,1s.6.9.7,1.4c.1.5.2,1.1.1,1.7h-5.7ZM537.6,434.4c0-.3,0-.5-.2-.8,0-.2-.2-.5-.4-.7-.2-.2-.4-.3-.6-.4-.2-.1-.5-.2-.8-.2s-.6,0-.8.2c-.2.1-.5.2-.6.4-.2.2-.3.4-.4.7-.1.2-.2.5-.2.8h4Z"/>
      <path class="st9" d="M540.6,431.2h1.6v1.1h0c.3-.4.6-.7,1-1s.9-.4,1.4-.4c.8,0,1.5.2,2,.7.5.4.7,1.1.7,2v5.3h-1.7v-4.9c0-.6-.2-1.1-.4-1.3-.2-.3-.6-.4-1.1-.4s-.5,0-.8.2c-.2.1-.4.2-.6.4-.2.2-.3.4-.4.7,0,.2-.1.5-.1.8v4.6h-1.7v-7.8Z"/>
      <path class="st9" d="M548.5,431.2h1.3v-2.3h1.7v2.3h1.5v1.3h-1.5v4.1c0,.2,0,.3,0,.5,0,.1,0,.2.1.3s.1.2.2.2c.1,0,.3,0,.4,0s.2,0,.4,0c.1,0,.2,0,.4,0v1.3c-.2,0-.4,0-.6,0-.2,0-.4,0-.6,0-.5,0-.8,0-1.1-.1s-.5-.2-.6-.4c-.2-.2-.3-.4-.3-.6s0-.5,0-.9v-4.6h-1.3v-1.3Z"/>
      <path class="st9" d="M554.3,428.2h1.7v1.6h-1.7v-1.6ZM554.3,431.2h1.7v7.8h-1.7v-7.8Z"/>
      <path class="st9" d="M564.4,437.2c0,.2,0,.4,0,.5s.2.1.3.1h.2c0,0,.2,0,.2,0v1.2c0,0-.1,0-.2,0,0,0-.2,0-.3,0,0,0-.2,0-.3,0-.1,0-.2,0-.3,0-.3,0-.6,0-.9-.2-.2-.1-.4-.4-.5-.7-.3.3-.8.6-1.3.7-.5.2-1,.2-1.4.2s-.7,0-1-.1-.6-.2-.8-.4c-.2-.2-.4-.4-.6-.7s-.2-.6-.2-1,0-.9.3-1.2c.2-.3.4-.5.7-.7.3-.2.6-.3,1-.4s.7-.1,1.1-.2c.3,0,.6-.1.9-.1.3,0,.5,0,.7-.1.2,0,.4-.2.5-.3s.2-.3.2-.6,0-.4-.2-.5c-.1-.1-.2-.2-.4-.3-.2,0-.3-.1-.5-.2-.2,0-.4,0-.5,0-.5,0-.9,0-1.2.3s-.5.5-.5.9h-1.7c0-.5.2-.9.4-1.2s.5-.6.8-.8.7-.3,1.1-.4c.4,0,.8-.1,1.3-.1s.8,0,1.1.1c.4,0,.7.2,1,.4.3.2.5.4.7.7s.3.6.3,1v4ZM562.7,435c-.3.2-.6.3-1,.3-.4,0-.8,0-1.1.2-.2,0-.4,0-.5.1-.2,0-.3.1-.4.2-.1,0-.2.2-.3.4s-.1.3-.1.6,0,.3.2.5c.1.1.2.2.4.3.2,0,.3.1.5.2.2,0,.4,0,.5,0s.4,0,.6,0c.2,0,.4-.1.6-.3.2-.1.4-.3.5-.5.1-.2.2-.4.2-.7v-1.3Z"/>
      <path class="st9" d="M566.3,428.2h1.7v10.7h-1.7v-10.7Z"/>
      <path class="st9" d="M494.2,460.3c.4.4.9.6,1.5.7v-4c-.5-.1-1-.3-1.4-.4s-.7-.3-1-.6-.4-.5-.6-.8c-.1-.3-.2-.7-.2-1.1s0-.9.2-1.2.4-.7.7-1c.3-.3.6-.5,1-.7.4-.2.8-.3,1.2-.3v-1h.8v1c.8,0,1.5.4,1.9.9.5.5.8,1.2,1,2.1h-1.3c-.2-1-.8-1.6-1.7-1.7v3.7l.9.2c.2,0,.4.1.7.3.3.1.5.3.8.5.2.2.5.5.6.8s.3.7.3,1.2,0,.9-.2,1.3c-.2.4-.4.7-.7,1-.3.3-.6.5-1,.7-.4.2-.8.3-1.3.3v1.2h-.8v-1.2c-1-.1-1.8-.4-2.4-1s-.9-1.4-1-2.5h1.3c0,.7.2,1.2.6,1.6ZM494.5,452.7c-.3.3-.5.7-.5,1.3s0,.5.1.7c0,.2.2.3.4.5.2.1.3.2.5.3s.4.2.7.2v-3.5c-.5,0-.9.2-1.2.5ZM497.3,460.8c.2,0,.4-.2.6-.4.2-.2.3-.4.4-.6,0-.2.1-.5.1-.8s0-.5-.2-.7-.2-.4-.4-.5c-.2-.1-.4-.3-.6-.4-.2,0-.5-.2-.8-.3v3.8c.3,0,.5,0,.8-.2Z"/>
      <path class="st9" d="M503.7,455.9h.4c.3,0,.5,0,.8-.1.2,0,.5-.2.6-.3.2-.1.3-.3.4-.5.1-.2.2-.5.2-.8,0-.6-.2-1-.5-1.3-.4-.3-.8-.4-1.4-.4s-.6,0-.9.2-.5.3-.6.5-.3.5-.4.7-.1.6-.1.9h-1.3c0-.5.1-1,.2-1.4.1-.4.4-.8.6-1.1.3-.3.6-.5,1-.7s.9-.3,1.4-.3.9,0,1.3.2c.4.1.7.3,1,.5.3.2.5.5.7.9.2.4.2.8.2,1.3s-.1.9-.4,1.3c-.3.4-.6.6-1,.8h0c.6.2,1.1.5,1.4.9.3.5.5,1,.5,1.7s0,1-.3,1.4c-.2.4-.5.7-.8,1-.3.3-.7.5-1.2.6-.4.1-.9.2-1.4.2s-1,0-1.5-.2c-.4-.1-.8-.4-1.1-.7-.3-.3-.5-.7-.7-1.1-.2-.4-.2-.9-.2-1.5h1.3c0,.7.2,1.3.6,1.7.4.4.9.7,1.7.7s.6,0,.9-.1c.3,0,.5-.2.7-.4.2-.2.4-.4.5-.6s.2-.5.2-.9,0-.6-.2-.9-.3-.5-.5-.6c-.2-.2-.4-.3-.7-.4s-.6-.1-.9-.1-.5,0-.8,0v-1.1c0,0,0,0,.1,0Z"/>
      <path class="st9" d="M511.5,460.3v1.7h-1.7v-1.7h1.7Z"/>
      <path class="st9" d="M513.6,453.6c.1-.5.4-.9.7-1.2s.7-.6,1.1-.8c.4-.2.9-.3,1.5-.3s.9,0,1.3.2.8.3,1.1.6c.3.3.5.6.7,1,.2.4.3.8.3,1.3s0,.9-.2,1.2c-.1.4-.3.7-.6,1-.2.3-.5.5-.8.8-.3.2-.6.4-1,.7-.3.2-.7.4-1,.6s-.6.4-.9.6c-.3.2-.5.5-.7.7-.2.3-.3.5-.4.9h5.5v1.1h-6.9c0-.6.2-1.2.3-1.6.2-.4.4-.8.7-1.2s.6-.6.9-.9.7-.5,1.1-.7c.4-.3.8-.5,1.2-.8.3-.2.6-.5.8-.7.2-.2.4-.5.5-.8.1-.3.2-.6.2-1s0-.6-.2-.8c-.1-.2-.3-.4-.4-.6-.2-.2-.4-.3-.7-.4s-.5-.1-.8-.1-.7,0-1,.2c-.3.2-.5.4-.7.6s-.3.5-.4.8c0,.3-.1.6,0,1h-1.3c0-.5,0-1,.2-1.5Z"/>
      <path class="st9" d="M523.4,451.2v4h0c.2-.4.5-.7,1-.9.4-.2.9-.3,1.5-.3s1.1.1,1.6.3c.4.2.8.5,1.1.9s.5.8.7,1.3c.1.5.2,1,.2,1.6s0,1.1-.2,1.6c-.1.5-.4.9-.7,1.3s-.7.7-1.1.9c-.4.2-1,.3-1.6.3s-.4,0-.6,0-.5-.1-.7-.2c-.2,0-.4-.2-.7-.4-.2-.2-.4-.3-.5-.6h0v1h-1.3v-10.7h1.3ZM528,456.9c0-.3-.2-.7-.4-.9-.2-.3-.4-.5-.8-.6s-.7-.2-1.1-.2-.8,0-1.1.3c-.3.2-.5.4-.7.7s-.3.6-.4.9c0,.4-.1.7-.1,1.1s0,.7.1,1.1c0,.4.2.7.4.9.2.3.4.5.8.7s.7.2,1.1.2.8,0,1.1-.3.5-.4.7-.7c.2-.3.3-.6.4-1,0-.4.1-.7.1-1.1s0-.7-.1-1.1Z"/>
      <path class="st9" d="M532.2,454.2v1.2h0c.5-.9,1.4-1.4,2.5-1.4s.9,0,1.3.2c.3.1.6.3.8.6.2.2.4.5.4.9,0,.3.1.7.1,1.1v5.1h-1.3v-5.2c0-.5-.1-.9-.4-1.1s-.7-.4-1.2-.4-.7,0-1,.2-.5.3-.7.5c-.2.2-.3.5-.4.8,0,.3-.1.6-.1,1v4.4h-1.3v-7.8h1.2Z"/>
    </g>
    <g>
      <path class="st9" d="M225.1,498.4h8.7v1.6h-3.4v9.1h-1.9v-9.1h-3.4v-1.6Z"/>
      <path class="st9" d="M236.6,509.3c-.6,0-1.2-.1-1.7-.3s-.9-.5-1.2-.8-.6-.8-.8-1.3c-.2-.5-.3-1-.3-1.6s0-1.1.3-1.6c.2-.5.4-.9.8-1.3.3-.4.7-.6,1.2-.8.5-.2,1-.3,1.7-.3s1.2.1,1.7.3c.5.2.9.5,1.2.8.3.4.6.8.8,1.3s.3,1,.3,1.6,0,1.1-.3,1.6-.4.9-.8,1.3-.7.6-1.2.8c-.5.2-1,.3-1.7.3ZM236.6,507.9c.4,0,.7,0,1-.2s.5-.4.7-.6c.2-.3.3-.6.4-.9,0-.3.1-.7.1-1s0-.7-.1-1c0-.3-.2-.6-.4-.9-.2-.3-.4-.5-.7-.6s-.6-.2-1-.2-.7,0-1,.2-.5.4-.7.6c-.2.3-.3.5-.4.9s-.1.7-.1,1,0,.7.1,1,.2.6.4.9c.2.3.4.5.7.6s.6.2,1,.2Z"/>
      <path class="st9" d="M248.8,509.1h-1.7v-1.1h0c-.2.4-.5.7-.9.9-.4.2-.8.4-1.3.4-1,0-1.8-.3-2.2-.8s-.7-1.3-.7-2.3v-4.9h1.7v4.8c0,.7.1,1.2.4,1.4.3.3.6.4,1.1.4s.7,0,.9-.2c.2-.1.4-.3.6-.4.1-.2.3-.4.3-.7s0-.5,0-.8v-4.5h1.7v7.8Z"/>
      <path class="st9" d="M250.6,501.3h1.6v1.5h0c0-.2.1-.4.3-.6.1-.2.3-.4.5-.5.2-.2.4-.3.7-.4.2,0,.5-.1.8-.1s.3,0,.4,0c0,0,.2,0,.2,0v1.6c-.1,0-.2,0-.4,0-.1,0-.2,0-.4,0-.3,0-.6,0-.8.2-.3.1-.5.3-.7.5-.2.2-.3.5-.5.8s-.2.7-.2,1.1v3.7h-1.7v-7.8Z"/>
      <path class="st9" d="M255.9,498.4h1.7v1.6h-1.7v-1.6ZM255.9,501.3h1.7v7.8h-1.7v-7.8Z"/>
      <path class="st9" d="M260.8,506.6c0,.5.2.8.6,1,.3.2.7.3,1.2.3s.3,0,.5,0c.2,0,.4,0,.6-.1.2,0,.3-.2.4-.3.1-.1.2-.3.2-.5s0-.4-.2-.5c-.2-.1-.3-.3-.6-.3-.2,0-.5-.2-.8-.2-.3,0-.6-.1-.9-.2-.3,0-.6-.2-.9-.3s-.6-.2-.8-.4-.4-.4-.6-.7-.2-.6-.2-1,.1-.8.3-1.1c.2-.3.5-.5.8-.7.3-.2.7-.3,1.1-.4.4,0,.8-.1,1.1-.1s.8,0,1.1.1c.4,0,.7.2,1,.4.3.2.5.4.7.7.2.3.3.7.4,1.1h-1.8c0-.4-.3-.7-.6-.8-.3-.1-.6-.2-1-.2s-.3,0-.4,0c-.2,0-.3,0-.5.1s-.3.1-.4.2c-.1.1-.1.2-.1.4s0,.4.2.5c.1.1.3.2.6.3.2,0,.5.2.8.2.3,0,.6.1.9.2.3,0,.6.2.9.3.3.1.6.2.8.4s.4.4.6.6c.1.3.2.6.2,1s-.1.9-.3,1.2c-.2.3-.5.6-.8.8-.3.2-.7.3-1.1.4-.4,0-.8.1-1.2.1s-.9,0-1.4-.2c-.4-.1-.8-.3-1.1-.5-.3-.2-.5-.5-.7-.8s-.3-.7-.3-1.2h1.7Z"/>
      <path class="st9" d="M267.3,501.3h1.6v1.1h0c.1-.2.3-.4.4-.5s.3-.3.5-.4c.2-.1.4-.2.6-.3.2,0,.5,0,.8,0,.5,0,.9.1,1.3.3.4.2.7.5.9,1,.3-.4.6-.7,1-.9s.9-.3,1.4-.3c.8,0,1.5.2,1.9.6.5.4.7,1.1.7,2v5.4h-1.7v-4.5c0-.3,0-.6,0-.8,0-.3,0-.5-.2-.7,0-.2-.2-.3-.4-.4-.2-.1-.5-.2-.8-.2-.6,0-1,.2-1.3.5-.3.4-.4.9-.4,1.5v4.5h-1.7v-5c0-.5,0-.9-.3-1.2-.2-.3-.6-.4-1.1-.4s-.4,0-.6.1-.4.2-.5.4c-.2.2-.3.4-.4.6s-.1.5-.1.9v4.6h-1.7v-7.8Z"/>
      <path class="st9" d="M290.5,507.9c-.4.5-.8.8-1.3,1.1-.5.2-1,.3-1.7.3s-.9,0-1.4-.2c-.4-.1-.8-.4-1.1-.6-.3-.3-.5-.6-.7-1-.2-.4-.2-.8-.2-1.3s0-.7.2-1c.1-.3.3-.6.6-.8.2-.3.5-.5.8-.7.3-.2.6-.4.9-.5-.1-.2-.3-.4-.4-.5-.1-.2-.2-.4-.3-.5-.1-.2-.2-.4-.2-.6,0-.2,0-.4,0-.7,0-.4,0-.7.2-1,.1-.3.3-.6.6-.8.2-.2.5-.4.8-.5.3-.1.7-.2,1-.2s.7,0,1,.2c.3.1.6.3.9.5.2.2.4.5.6.8.1.3.2.7.2,1.1s0,.6-.2.9c-.1.3-.2.5-.4.7-.2.2-.4.4-.6.6-.2.2-.5.3-.7.5l1.7,2c0-.2.1-.4.2-.6,0-.2.1-.5.1-.9h1.5c0,.5-.1.9-.3,1.4s-.3.9-.6,1.2l2.1,2.5h-2.1l-1-1.2ZM287.4,504.1c-.2,0-.3.2-.5.3-.2.1-.4.2-.5.4-.2.2-.3.3-.4.5-.1.2-.2.5-.2.8,0,.6.2,1,.5,1.3.3.3.7.5,1.2.5s.6,0,.8-.1c.2,0,.4-.2.6-.3.2-.1.3-.2.4-.4.1-.1.2-.3.3-.4l-2.1-2.6ZM288.1,499.4c-.3,0-.6.1-.8.3-.2.2-.3.5-.3.9s0,.3,0,.5c0,.2.1.3.2.5,0,.1.2.3.3.4.1.1.2.3.3.4.2-.1.3-.2.5-.3s.3-.2.4-.4c.1-.1.2-.3.3-.5,0-.2.1-.4.1-.6,0-.4-.1-.6-.3-.9-.2-.2-.5-.4-.8-.4Z"/>
      <path class="st9" d="M298.6,498.4h1.9v9.1h5.4v1.6h-7.3v-10.7Z"/>
      <path class="st9" d="M308.3,505.6c0,.3,0,.6.1.9,0,.3.2.5.4.7.2.2.4.4.6.5.3.1.6.2.9.2s.9-.1,1.2-.3.5-.5.7-1h1.6c0,.4-.2.8-.5,1.1-.2.3-.5.6-.8.8s-.7.4-1,.5c-.4.1-.8.2-1.2.2-.6,0-1.1-.1-1.6-.3-.5-.2-.9-.5-1.2-.8-.3-.4-.6-.8-.7-1.3-.2-.5-.2-1-.2-1.6s0-1.1.3-1.6c.2-.5.4-.9.8-1.3.3-.4.7-.7,1.2-.9.5-.2,1-.3,1.6-.3s1.2.1,1.6.4c.5.3.9.6,1.2,1,.3.4.6.9.7,1.4.1.5.2,1.1.1,1.7h-5.7ZM312.3,504.5c0-.3,0-.5-.2-.8,0-.2-.2-.5-.4-.7-.2-.2-.4-.3-.6-.4-.2-.1-.5-.2-.8-.2s-.6,0-.8.2c-.2.1-.5.2-.6.4-.2.2-.3.4-.4.7s-.2.5-.2.8h4Z"/>
      <path class="st9" d="M315.4,498.4h1.7v1.6h-1.7v-1.6ZM315.4,501.3h1.7v7.8h-1.7v-7.8Z"/>
      <path class="st9" d="M320.2,506.6c0,.5.2.8.6,1,.3.2.7.3,1.2.3s.3,0,.5,0c.2,0,.4,0,.6-.1.2,0,.3-.2.4-.3.1-.1.2-.3.2-.5s0-.4-.2-.5c-.2-.1-.3-.3-.6-.3-.2,0-.5-.2-.8-.2-.3,0-.6-.1-.9-.2-.3,0-.6-.2-.9-.3s-.6-.2-.8-.4-.4-.4-.6-.7-.2-.6-.2-1,.1-.8.3-1.1c.2-.3.5-.5.8-.7.3-.2.7-.3,1.1-.4.4,0,.8-.1,1.1-.1s.8,0,1.1.1c.4,0,.7.2,1,.4.3.2.5.4.7.7.2.3.3.7.4,1.1h-1.8c0-.4-.3-.7-.6-.8-.3-.1-.6-.2-1-.2s-.3,0-.4,0c-.2,0-.3,0-.5.1s-.3.1-.4.2c-.1.1-.1.2-.1.4s0,.4.2.5c.1.1.3.2.6.3.2,0,.5.2.8.2.3,0,.6.1.9.2.3,0,.6.2.9.3.3.1.6.2.8.4s.4.4.6.6c.1.3.2.6.2,1s-.1.9-.3,1.2c-.2.3-.5.6-.8.8-.3.2-.7.3-1.1.4-.4,0-.8.1-1.2.1s-.9,0-1.4-.2c-.4-.1-.8-.3-1.1-.5-.3-.2-.5-.5-.7-.8s-.3-.7-.3-1.2h1.7Z"/>
      <path class="st9" d="M333.5,509.1h-1.7v-1.1h0c-.2.4-.5.7-.9.9-.4.2-.8.4-1.3.4-1,0-1.8-.3-2.2-.8s-.7-1.3-.7-2.3v-4.9h1.7v4.8c0,.7.1,1.2.4,1.4.3.3.6.4,1.1.4s.7,0,.9-.2c.2-.1.4-.3.6-.4.1-.2.3-.4.3-.7s0-.5,0-.8v-4.5h1.7v7.8Z"/>
      <path class="st9" d="M335.3,501.3h1.6v1.5h0c0-.2.1-.4.3-.6.1-.2.3-.4.5-.5s.4-.3.7-.4c.2,0,.5-.1.8-.1s.3,0,.4,0,.2,0,.2,0v1.6c-.1,0-.2,0-.4,0-.1,0-.2,0-.4,0-.3,0-.6,0-.8.2-.3.1-.5.3-.7.5-.2.2-.3.5-.5.8-.1.3-.2.7-.2,1.1v3.7h-1.7v-7.8Z"/>
      <path class="st9" d="M341.7,505.6c0,.3,0,.6.1.9,0,.3.2.5.4.7s.4.4.6.5c.3.1.6.2.9.2s.9-.1,1.2-.3c.3-.2.5-.5.7-1h1.6c0,.4-.2.8-.5,1.1-.2.3-.5.6-.8.8-.3.2-.7.4-1,.5-.4.1-.8.2-1.2.2-.6,0-1.2-.1-1.6-.3-.5-.2-.9-.5-1.2-.8-.3-.4-.6-.8-.7-1.3-.2-.5-.2-1-.2-1.6s0-1.1.3-1.6c.2-.5.4-.9.8-1.3.3-.4.7-.7,1.2-.9.5-.2,1-.3,1.6-.3s1.2.1,1.6.4c.5.3.9.6,1.2,1s.6.9.7,1.4c.1.5.2,1.1.1,1.7h-5.7ZM345.7,504.5c0-.3,0-.5-.2-.8s-.2-.5-.4-.7c-.2-.2-.4-.3-.6-.4-.2-.1-.5-.2-.8-.2s-.6,0-.8.2c-.2.1-.5.2-.6.4-.2.2-.3.4-.4.7-.1.2-.2.5-.2.8h4Z"/>
      <path class="st9" d="M227.2,530.4c.4.4.9.6,1.5.7v-4c-.5-.1-1-.3-1.4-.4-.4-.2-.7-.3-1-.6s-.4-.5-.6-.8c-.1-.3-.2-.7-.2-1.1s0-.9.2-1.2c.2-.4.4-.7.7-1,.3-.3.6-.5,1-.7.4-.2.8-.3,1.2-.3v-1h.8v1c.8,0,1.5.4,1.9.9s.8,1.2,1,2.1h-1.3c-.2-1-.8-1.6-1.7-1.7v3.7l.9.2c.2,0,.4.1.7.3s.5.3.8.5c.2.2.5.5.6.8s.3.7.3,1.2,0,.9-.2,1.3-.4.7-.7,1c-.3.3-.6.5-1,.7-.4.2-.8.3-1.3.3v1.2h-.8v-1.2c-1-.1-1.8-.4-2.4-1s-.9-1.4-1-2.5h1.3c0,.7.2,1.2.6,1.6ZM227.5,522.8c-.3.3-.5.7-.5,1.3s0,.5.1.7c0,.2.2.3.4.5.2.1.3.2.5.3s.4.2.7.2v-3.5c-.5,0-.9.2-1.2.5ZM230.3,531c.2,0,.4-.2.6-.4.2-.2.3-.4.4-.6,0-.2.1-.5.1-.8s0-.5-.1-.7c-.1-.2-.2-.4-.4-.5-.2-.1-.4-.3-.6-.4-.2,0-.5-.2-.8-.3v3.8c.3,0,.5,0,.8-.2Z"/>
      <path class="st9" d="M233.5,525.6c0-.4,0-.8.1-1.2,0-.4.2-.8.3-1.1.2-.4.4-.7.6-.9.3-.3.6-.5,1-.6.4-.2.9-.2,1.4-.2s1,0,1.4.2c.4.2.7.4,1,.6.3.3.5.6.6.9.1.4.3.7.3,1.1,0,.4.1.8.2,1.2,0,.4,0,.8,0,1.2s0,.8,0,1.2c0,.4,0,.8-.2,1.2,0,.4-.2.8-.3,1.1-.1.4-.4.7-.6.9-.3.3-.6.5-1,.6-.4.2-.9.2-1.4.2s-1,0-1.4-.2c-.4-.2-.7-.4-1-.6-.3-.3-.5-.6-.6-.9-.1-.4-.3-.7-.3-1.1,0-.4-.1-.8-.1-1.2,0-.4,0-.8,0-1.2s0-.8,0-1.2ZM234.9,528.2c0,.5.1,1,.2,1.4.1.4.4.8.7,1.1.3.3.7.5,1.3.5s1-.2,1.3-.5c.3-.3.5-.7.7-1.1.1-.4.2-.9.2-1.4s0-.9,0-1.3,0-.5,0-.9c0-.3,0-.6,0-.9,0-.3-.1-.6-.2-.9,0-.3-.2-.6-.4-.8-.2-.2-.4-.4-.6-.5-.2-.1-.6-.2-.9-.2s-.7,0-.9.2c-.2.1-.5.3-.6.5-.2.2-.3.5-.4.8,0,.3-.1.6-.2.9,0,.3,0,.6,0,.9,0,.3,0,.6,0,.9,0,.4,0,.8,0,1.3Z"/>
      <path class="st9" d="M243.7,530.4v1.7h-1.7v-1.7h1.7Z"/>
      <path class="st9" d="M250.6,524.6c-.5.7-.9,1.5-1.3,2.3-.4.8-.7,1.7-.9,2.6-.2.9-.4,1.7-.4,2.6h-1.4c0-.9.2-1.8.4-2.6.2-.9.5-1.7.9-2.5.4-.8.8-1.5,1.3-2.2.5-.7,1-1.3,1.6-1.9h-5.6v-1.2h6.9v1.1c-.5.5-1,1.2-1.5,1.9Z"/>
      <path class="st9" d="M254.6,521.4v4h0c.2-.4.5-.7,1-.9.5-.2.9-.3,1.5-.3s1.1.1,1.6.3c.4.2.8.5,1.1.9s.5.8.7,1.3.2,1,.2,1.6,0,1.1-.2,1.6c-.1.5-.4.9-.7,1.3s-.7.7-1.1.9c-.4.2-1,.3-1.6.3s-.4,0-.6,0c-.2,0-.5-.1-.7-.2-.2,0-.4-.2-.7-.4-.2-.2-.4-.3-.5-.6h0v1h-1.3v-10.7h1.3ZM259.2,527.1c0-.3-.2-.7-.4-.9-.2-.3-.4-.5-.8-.6-.3-.2-.7-.2-1.1-.2s-.8,0-1.1.3c-.3.2-.5.4-.7.7s-.3.6-.4.9c0,.4-.1.7-.1,1.1s0,.7.1,1.1c0,.4.2.7.4.9.2.3.4.5.8.7.3.2.7.2,1.1.2s.8,0,1.1-.3c.3-.2.5-.4.7-.7.2-.3.3-.6.4-1,0-.4.1-.7.1-1.1s0-.7-.1-1.1Z"/>
      <path class="st9" d="M263.4,524.3v1.2h0c.5-.9,1.4-1.4,2.5-1.4s.9,0,1.3.2c.3.1.6.3.8.6.2.2.4.5.4.9,0,.3.1.7.1,1.1v5.1h-1.3v-5.2c0-.5-.1-.9-.4-1.1-.3-.3-.7-.4-1.2-.4s-.7,0-1,.2-.5.3-.7.5c-.2.2-.3.5-.4.8s-.1.6-.1,1v4.4h-1.3v-7.8h1.2Z"/>
    </g>
    <g>
      <path class="st9" d="M41.7,385.1c0,.5,0,.9-.1,1.4,0,.4-.2.8-.5,1.2-.2.3-.6.6-1.1.8-.5.2-1.1.3-1.9.3s-1.1,0-1.5-.3-.7-.4-1-.7c-.3-.3-.4-.7-.6-1.1s-.2-.9-.2-1.4v-.6h1.9v.6c0,.6.1,1.1.3,1.4s.6.5,1.2.5.5,0,.7-.1c.2,0,.3-.2.5-.4.1-.2.2-.4.2-.7,0-.3,0-.6,0-.9v-7.4h1.9v7.3Z"/>
      <path class="st9" d="M50.6,388.6h-1.7v-1.1h0c-.2.4-.5.7-.9.9-.4.2-.8.4-1.3.4-1,0-1.8-.3-2.2-.8s-.7-1.3-.7-2.3v-4.9h1.7v4.8c0,.7.1,1.2.4,1.4.3.3.6.4,1.1.4s.7,0,.9-.2c.2-.1.4-.3.6-.4.1-.2.3-.4.3-.7,0-.3,0-.5,0-.8v-4.5h1.7v7.8Z"/>
      <path class="st9" d="M53.7,386.1c0,.5.2.9.6,1.1.3.2.7.3,1.2.3s.3,0,.5,0c.2,0,.4,0,.6-.1.2,0,.3-.2.4-.3.1-.1.2-.3.2-.5,0-.2,0-.4-.2-.5-.2-.1-.3-.3-.6-.3-.2,0-.5-.2-.8-.2-.3,0-.6-.1-.9-.2-.3,0-.6-.2-.9-.3-.3,0-.6-.2-.8-.4s-.4-.4-.6-.7c-.1-.3-.2-.6-.2-1s.1-.8.3-1.1c.2-.3.5-.5.8-.7s.7-.3,1.1-.4c.4,0,.8-.1,1.1-.1s.8,0,1.1.1c.4,0,.7.2,1,.4.3.2.5.4.7.7.2.3.3.7.4,1.1h-1.8c0-.4-.3-.7-.6-.8-.3-.1-.6-.2-1-.2s-.3,0-.4,0c-.2,0-.3,0-.5.1-.1,0-.3.1-.4.2-.1.1-.1.2-.1.4s0,.4.2.5.3.2.6.3c.2,0,.5.2.8.2.3,0,.6.1.9.2.3,0,.6.2.9.3.3,0,.6.2.8.4.2.2.4.4.6.6.1.3.2.6.2,1s-.1.8-.3,1.2-.5.6-.8.8c-.3.2-.7.3-1.1.4s-.8.1-1.2.1-.9,0-1.4-.2c-.4-.1-.8-.3-1.1-.5-.3-.2-.5-.5-.7-.8s-.3-.7-.3-1.2h1.7Z"/>
      <path class="st9" d="M59.4,380.8h1.3v-2.3h1.7v2.3h1.5v1.3h-1.5v4.1c0,.2,0,.3,0,.5s0,.2.1.3c0,0,.1.2.2.2.1,0,.3,0,.4,0s.2,0,.4,0c.1,0,.2,0,.4,0v1.3c-.2,0-.4,0-.6,0-.2,0-.4,0-.6,0-.5,0-.8,0-1.1-.1-.3,0-.5-.2-.6-.4-.2-.2-.3-.4-.3-.6,0-.2,0-.5,0-.9v-4.6h-1.3v-1.3Z"/>
      <path class="st9" d="M65.2,377.9h1.7v1.6h-1.7v-1.6ZM65.2,380.8h1.7v7.8h-1.7v-7.8Z"/>
      <path class="st9" d="M74,383.4c0-.5-.3-.8-.6-1.1s-.7-.4-1.2-.4-.5,0-.7.1c-.2,0-.5.2-.7.4-.2.2-.4.5-.5.9-.1.4-.2.8-.2,1.4s0,.6.1,1c0,.3.2.6.4.9s.4.5.6.6c.3.2.6.2.9.2s.9-.2,1.2-.5c.3-.3.5-.7.6-1.3h1.7c-.2,1-.5,1.8-1.1,2.3-.6.5-1.4.8-2.4.8s-1.1-.1-1.6-.3c-.5-.2-.9-.5-1.2-.8-.3-.4-.6-.8-.7-1.3-.2-.5-.2-1-.2-1.6s0-1.1.2-1.6c.2-.5.4-1,.7-1.3s.7-.7,1.2-.9c.5-.2,1-.3,1.7-.3s.9,0,1.3.2c.4.1.8.3,1.1.5.3.2.6.5.8.9.2.3.3.8.4,1.2h-1.7Z"/>
      <path class="st9" d="M78.4,385.1c0,.3,0,.6.1.9,0,.3.2.5.4.7.2.2.4.4.6.5.3.1.6.2.9.2s.9-.1,1.2-.3.5-.5.7-1h1.6c0,.4-.2.8-.5,1.1-.2.3-.5.6-.8.8-.3.2-.7.4-1,.5-.4.1-.8.2-1.2.2-.6,0-1.1,0-1.6-.3-.5-.2-.9-.5-1.2-.8-.3-.4-.6-.8-.7-1.3s-.2-1-.2-1.7,0-1.1.3-1.6c.2-.5.4-.9.8-1.3.3-.4.7-.7,1.2-.9s1-.3,1.6-.3,1.2.1,1.6.4c.5.3.9.6,1.2,1,.3.4.6.9.7,1.4s.2,1.1.1,1.7h-5.7ZM82.4,384c0-.3,0-.5-.2-.8,0-.2-.2-.5-.4-.7-.2-.2-.4-.3-.6-.5-.2-.1-.5-.2-.8-.2s-.6,0-.8.2c-.2.1-.5.2-.6.4-.2.2-.3.4-.4.7-.1.2-.2.5-.2.8h4Z"/>
      <path class="st9" d="M85.6,386.5h2.1v2c0,.6-.2,1.1-.6,1.6s-.9.7-1.5.8v-.9c.3,0,.6-.3.7-.5.2-.3.2-.6.2-.9h-1v-2Z"/>
      <path class="st9" d="M35.9,400.9h7.7v1.6h-5.8v2.8h5.4v1.5h-5.4v3.1h5.9v1.6h-7.8v-10.7Z"/>
      <path class="st9" d="M52.5,411.6h-1.6v-1h0c-.2.5-.6.8-1,1-.4.2-.9.3-1.4.3s-1.1-.1-1.6-.3c-.5-.2-.8-.5-1.1-.9-.3-.4-.5-.8-.7-1.3-.1-.5-.2-1-.2-1.6s0-1.3.3-1.8c.2-.5.4-.9.8-1.3s.7-.6,1.1-.7c.4-.2.8-.2,1.2-.2s.5,0,.7,0c.2,0,.5.1.7.2s.4.2.6.4c.2.2.4.3.5.5h0v-4h1.7v10.7ZM46.5,407.8c0,.3,0,.7.1,1,0,.3.2.6.4.9s.4.5.7.6c.3.2.6.2,1,.2s.7,0,1-.2.5-.4.7-.6c.2-.3.3-.6.4-.9,0-.3.1-.7.1-1,0-.9-.2-1.5-.6-2-.4-.5-.9-.7-1.6-.7s-.7,0-1,.2-.5.4-.7.6c-.2.3-.3.6-.4.9,0,.3-.1.7-.1,1Z"/>
      <path class="st9" d="M61.1,411.6h-1.7v-1.1h0c-.2.4-.5.7-.9.9-.4.2-.8.4-1.3.4-1,0-1.8-.3-2.2-.8s-.7-1.3-.7-2.3v-4.9h1.7v4.8c0,.7.1,1.2.4,1.4.3.3.6.4,1.1.4s.7,0,.9-.2c.2-.1.4-.3.6-.4.1-.2.3-.4.3-.7,0-.3,0-.5,0-.8v-4.5h1.7v7.8Z"/>
      <path class="st9" d="M68.2,406.4c0-.5-.3-.8-.6-1.1s-.7-.4-1.2-.4-.5,0-.7.1c-.2,0-.5.2-.7.4-.2.2-.4.5-.5.9-.1.4-.2.8-.2,1.4s0,.6.1,1c0,.3.2.6.4.9s.4.5.6.6c.3.2.6.2.9.2s.9-.2,1.2-.5c.3-.3.5-.7.6-1.3h1.7c-.2,1-.5,1.8-1.1,2.3-.6.5-1.4.8-2.4.8s-1.1-.1-1.6-.3c-.5-.2-.9-.5-1.2-.8-.3-.4-.6-.8-.7-1.3-.2-.5-.2-1-.2-1.6s0-1.1.2-1.6c.2-.5.4-1,.7-1.3s.7-.7,1.2-.9c.5-.2,1-.3,1.7-.3s.9,0,1.3.2c.4.1.8.3,1.1.5.3.2.6.5.8.9.2.3.3.8.4,1.2h-1.7Z"/>
      <path class="st9" d="M77.8,409.8c0,.2,0,.4,0,.5,0,0,.2.1.3.1h.2c0,0,.1,0,.2,0v1.2c0,0-.1,0-.2,0,0,0-.2,0-.3,0-.1,0-.2,0-.3,0-.1,0-.2,0-.3,0-.4,0-.6,0-.9-.2-.2-.1-.4-.4-.5-.7-.3.3-.8.6-1.3.7-.5.1-1,.2-1.4.2s-.7,0-1-.1c-.3,0-.6-.2-.8-.4-.2-.2-.4-.4-.6-.7-.1-.3-.2-.6-.2-1s0-.9.3-1.2c.2-.3.4-.5.7-.7.3-.2.6-.3,1-.4.4,0,.7-.1,1.1-.2.3,0,.6-.1.9-.1.3,0,.5,0,.7-.1.2,0,.4-.2.5-.3s.2-.3.2-.6,0-.4-.2-.5c-.1-.1-.2-.2-.4-.3-.2,0-.3-.1-.5-.1s-.4,0-.5,0c-.5,0-.9.1-1.2.3s-.5.5-.5.9h-1.7c0-.5.1-.9.4-1.2s.5-.6.8-.8c.3-.2.7-.3,1.1-.4s.8-.1,1.3-.1.8,0,1.1.1c.4,0,.7.2,1,.4.3.2.5.4.7.7.2.3.3.6.3,1v4ZM76.1,407.7c-.3.2-.6.3-1,.3-.4,0-.8,0-1.1.2-.2,0-.4,0-.5.1-.2,0-.3.1-.5.2-.1,0-.2.2-.3.4,0,.2-.1.3-.1.6s0,.4.2.5c.1.1.2.2.4.3.2,0,.3.1.5.2.2,0,.4,0,.5,0s.4,0,.6,0,.4-.1.6-.3.4-.3.5-.5c.1-.2.2-.4.2-.7v-1.3Z"/>
      <path class="st9" d="M78.8,403.8h1.3v-2.3h1.7v2.3h1.5v1.3h-1.5v4.1c0,.2,0,.3,0,.5s0,.2.1.3c0,0,.1.2.2.2.1,0,.3,0,.4,0s.2,0,.4,0c.1,0,.2,0,.4,0v1.3c-.2,0-.4,0-.6,0-.2,0-.4,0-.6,0-.5,0-.8,0-1.1-.1-.3,0-.5-.2-.6-.4-.2-.2-.3-.4-.3-.6,0-.2,0-.5,0-.9v-4.6h-1.3v-1.3Z"/>
      <path class="st9" d="M84.6,400.9h1.7v1.6h-1.7v-1.6ZM84.6,403.8h1.7v7.8h-1.7v-7.8Z"/>
      <path class="st9" d="M91.8,411.8c-.6,0-1.2-.1-1.7-.3-.5-.2-.9-.5-1.2-.8-.3-.4-.6-.8-.8-1.3-.2-.5-.3-1.1-.3-1.7s0-1.1.3-1.6c.2-.5.4-.9.8-1.3.3-.4.7-.6,1.2-.8s1-.3,1.7-.3,1.2.1,1.7.3c.5.2.9.5,1.2.8.3.4.6.8.8,1.3s.3,1,.3,1.6,0,1.2-.3,1.7-.4.9-.8,1.3c-.3.4-.7.6-1.2.8-.5.2-1,.3-1.7.3ZM91.8,410.4c.4,0,.7,0,1-.2s.5-.4.7-.6c.2-.3.3-.6.4-.9,0-.3.1-.7.1-1s0-.7-.1-1c0-.3-.2-.6-.4-.9-.2-.3-.4-.5-.7-.6-.3-.2-.6-.2-1-.2s-.7,0-1,.2c-.3.2-.5.4-.7.6-.2.3-.3.5-.4.9s-.1.7-.1,1,0,.7.1,1c0,.3.2.6.4.9.2.3.4.5.7.6s.6.2,1,.2Z"/>
      <path class="st9" d="M97.1,403.8h1.6v1.1h0c.3-.4.6-.7,1-1,.4-.2.9-.4,1.4-.4.9,0,1.5.2,2,.7.5.4.7,1.1.7,2v5.3h-1.7v-4.9c0-.6-.1-1.1-.4-1.3-.2-.3-.6-.4-1.1-.4s-.5,0-.8.2c-.2.1-.4.2-.6.4-.2.2-.3.4-.4.7,0,.2-.1.5-.1.8v4.6h-1.7v-7.8Z"/>
      <path class="st9" d="M115.8,410.4c-.4.5-.8.8-1.3,1.1-.5.2-1,.3-1.7.3s-.9,0-1.4-.2c-.4-.1-.8-.4-1.1-.6-.3-.3-.5-.6-.7-1-.2-.4-.2-.8-.2-1.3s0-.7.2-1c.1-.3.3-.6.6-.8.2-.3.5-.5.8-.7.3-.2.6-.4.9-.5-.1-.2-.3-.4-.4-.5-.1-.2-.2-.4-.3-.5-.1-.2-.2-.4-.2-.6,0-.2,0-.4,0-.7,0-.4,0-.7.2-1,.1-.3.3-.6.6-.8.2-.2.5-.4.8-.5.3-.1.7-.2,1-.2s.7,0,1,.2c.3.1.6.3.9.5s.4.5.6.8c.1.3.2.7.2,1.1s0,.6-.2.9c-.1.3-.2.5-.4.7-.2.2-.4.4-.6.6-.2.2-.5.3-.7.5l1.7,2c0-.2.1-.4.2-.6s.1-.5.1-.9h1.5c0,.5-.1.9-.3,1.4-.1.4-.3.9-.6,1.2l2.1,2.5h-2.1l-1-1.2ZM112.8,406.6c-.2.1-.3.2-.5.3-.2,0-.4.2-.5.4-.2.1-.3.3-.4.5-.1.2-.2.5-.2.8,0,.6.2,1,.5,1.3.3.3.7.5,1.2.5s.6,0,.8-.1c.2,0,.4-.2.6-.3.2-.1.3-.2.4-.4.1-.1.2-.3.3-.4l-2.1-2.6ZM113.5,401.9c-.3,0-.6.1-.8.3-.2.2-.3.5-.3.9s0,.3,0,.5.1.3.2.4c0,.1.2.3.3.4.1.1.2.3.3.4.2-.1.3-.2.5-.3.1-.1.3-.2.4-.4.1-.1.2-.3.3-.5,0-.2.1-.4.1-.6,0-.3-.1-.6-.3-.9-.2-.2-.5-.4-.8-.4Z"/>
      <path class="st9" d="M43.2,427.3c0-.3-.2-.6-.3-.9-.1-.3-.3-.5-.5-.7-.2-.2-.5-.3-.8-.4-.3-.1-.6-.2-1-.2-.6,0-1.1.1-1.5.3-.4.2-.8.5-1,.9-.3.4-.5.8-.6,1.3s-.2,1-.2,1.5,0,1,.2,1.5.3.9.6,1.3c.3.4.6.7,1,.9.4.2.9.3,1.5.3s.8,0,1.1-.2c.3-.1.6-.3.8-.6.2-.3.4-.6.5-.9s.2-.7.3-1.1h1.8c0,.6-.2,1.2-.4,1.8-.2.5-.6,1-1,1.4s-.9.7-1.4.9-1.1.3-1.8.3-1.5-.1-2.2-.4-1.2-.7-1.6-1.2c-.4-.5-.8-1.1-1-1.8s-.4-1.4-.4-2.2.1-1.5.4-2.2.6-1.3,1-1.8c.4-.5,1-.9,1.6-1.2s1.4-.5,2.2-.5,1.2,0,1.7.2c.5.2,1,.4,1.4.7.4.3.7.7,1,1.1s.4,1,.5,1.5h-1.9Z"/>
      <path class="st9" d="M50.1,434.8c-.6,0-1.2-.1-1.7-.3-.5-.2-.9-.5-1.2-.8-.3-.4-.6-.8-.8-1.3-.2-.5-.3-1.1-.3-1.7s0-1.1.3-1.6c.2-.5.4-.9.8-1.3.3-.4.7-.6,1.2-.8s1-.3,1.7-.3,1.2.1,1.7.3c.5.2.9.5,1.2.8.3.4.6.8.8,1.3s.3,1,.3,1.6,0,1.2-.3,1.7-.4.9-.8,1.3c-.3.4-.7.6-1.2.8-.5.2-1,.3-1.7.3ZM50.1,433.4c.4,0,.7,0,1-.2s.5-.4.7-.6c.2-.3.3-.6.4-.9,0-.3.1-.7.1-1s0-.7-.1-1c0-.3-.2-.6-.4-.9-.2-.3-.4-.5-.7-.6-.3-.2-.6-.2-1-.2s-.7,0-1,.2c-.3.2-.5.4-.7.6-.2.3-.3.5-.4.9s-.1.7-.1,1,0,.7.1,1c0,.3.2.6.4.9.2.3.4.5.7.6s.6.2,1,.2Z"/>
      <path class="st9" d="M55.4,426.8h1.6v1.1h0c.1-.2.3-.4.4-.5.1-.2.3-.3.5-.4s.4-.2.6-.3.5,0,.8,0c.5,0,.9.1,1.3.3.4.2.7.5.9,1,.3-.4.6-.7,1-.9.4-.2.9-.3,1.4-.3.8,0,1.5.2,1.9.6.5.4.7,1.1.7,2v5.4h-1.7v-4.5c0-.3,0-.6,0-.8,0-.3,0-.5-.2-.7,0-.2-.2-.3-.4-.4-.2,0-.5-.2-.8-.2-.6,0-1,.2-1.3.5-.3.4-.4.9-.4,1.5v4.5h-1.7v-5c0-.5,0-.9-.3-1.2s-.6-.4-1.1-.4-.4,0-.6.1-.4.2-.5.4c-.2.2-.3.4-.4.6s-.1.5-.1.9v4.6h-1.7v-7.8Z"/>
      <path class="st9" d="M68.5,426.8h1.6v1.1h0c.1-.2.3-.4.4-.5.1-.2.3-.3.5-.4s.4-.2.6-.3.5,0,.8,0c.5,0,.9.1,1.3.3.4.2.7.5.9,1,.3-.4.6-.7,1-.9.4-.2.9-.3,1.4-.3.8,0,1.5.2,1.9.6.5.4.7,1.1.7,2v5.4h-1.7v-4.5c0-.3,0-.6,0-.8,0-.3,0-.5-.2-.7,0-.2-.2-.3-.4-.4-.2,0-.5-.2-.8-.2-.6,0-1,.2-1.3.5-.3.4-.4.9-.4,1.5v4.5h-1.7v-5c0-.5,0-.9-.3-1.2s-.6-.4-1.1-.4-.4,0-.6.1-.4.2-.5.4c-.2.2-.3.4-.4.6s-.1.5-.1.9v4.6h-1.7v-7.8Z"/>
      <path class="st9" d="M88.3,434.6h-1.7v-1.1h0c-.2.4-.5.7-.9.9-.4.2-.8.4-1.3.4-1,0-1.8-.3-2.2-.8s-.7-1.3-.7-2.3v-4.9h1.7v4.8c0,.7.1,1.2.4,1.4.3.3.6.4,1.1.4s.7,0,.9-.2c.2-.1.4-.3.6-.4.1-.2.3-.4.3-.7,0-.3,0-.5,0-.8v-4.5h1.7v7.8Z"/>
      <path class="st9" d="M90.1,426.8h1.6v1.1h0c.3-.4.6-.7,1-1,.4-.2.9-.4,1.4-.4.9,0,1.5.2,2,.7.5.4.7,1.1.7,2v5.3h-1.7v-4.9c0-.6-.1-1.1-.4-1.3-.2-.3-.6-.4-1.1-.4s-.5,0-.8.2c-.2.1-.4.2-.6.4-.2.2-.3.4-.4.7,0,.2-.1.5-.1.8v4.6h-1.7v-7.8Z"/>
      <path class="st9" d="M98.8,423.9h1.7v1.6h-1.7v-1.6ZM98.8,426.8h1.7v7.8h-1.7v-7.8Z"/>
      <path class="st9" d="M101.6,426.8h1.3v-2.3h1.7v2.3h1.5v1.3h-1.5v4.1c0,.2,0,.3,0,.5s0,.2.1.3c0,0,.1.2.2.2.1,0,.3,0,.4,0s.2,0,.4,0c.1,0,.2,0,.4,0v1.3c-.2,0-.4,0-.6,0-.2,0-.4,0-.6,0-.5,0-.8,0-1.1-.1-.3,0-.5-.2-.6-.4-.2-.2-.3-.4-.3-.6,0-.2,0-.5,0-.9v-4.6h-1.3v-1.3Z"/>
      <path class="st9" d="M106.5,426.8h1.9l2,5.8h0l2-5.8h1.8l-3,8.2c-.1.4-.3.7-.4,1-.1.3-.3.6-.5.8-.2.2-.4.4-.7.6-.3.1-.7.2-1.1.2s-.8,0-1.2,0v-1.4c.1,0,.3,0,.4,0,.1,0,.3,0,.4,0,.2,0,.4,0,.5,0s.2-.1.3-.2c0,0,.2-.2.2-.3s.1-.3.2-.5l.2-.6-2.9-7.7Z"/>
      <path class="st9" d="M37.1,455.9c.4.4.9.6,1.5.7v-4c-.5-.1-1-.3-1.4-.4-.4-.2-.7-.3-1-.6s-.4-.5-.6-.8c-.1-.3-.2-.7-.2-1.1s0-.9.2-1.2c.2-.4.4-.7.7-1,.3-.3.6-.5,1-.7s.8-.3,1.2-.3v-1h.8v1c.8.1,1.5.4,1.9.9s.8,1.2,1,2.1h-1.3c-.2-1-.8-1.6-1.7-1.7v3.7l.9.2c.2,0,.4.1.7.3s.5.3.8.5c.2.2.5.5.6.8s.3.7.3,1.2,0,.9-.2,1.3-.4.7-.7,1c-.3.3-.6.5-1,.7-.4.2-.8.3-1.3.3v1.2h-.8v-1.2c-1,0-1.8-.4-2.4-1-.6-.6-.9-1.4-1-2.5h1.3c0,.7.2,1.2.6,1.6ZM37.3,448.3c-.3.3-.5.7-.5,1.3s0,.5.1.7c0,.2.2.3.4.5.2.1.3.2.5.3.2,0,.4.2.7.2v-3.5c-.5,0-.9.2-1.2.5ZM40.2,456.5c.2,0,.4-.2.6-.4.2-.2.3-.3.4-.6s.1-.5.1-.8,0-.5-.1-.7c-.1-.2-.2-.4-.4-.5-.2-.1-.4-.3-.6-.4-.2,0-.5-.2-.8-.3v3.8c.3,0,.5,0,.8-.2Z"/>
      <path class="st9" d="M46.5,451.5h.4c.3,0,.5,0,.8-.1.2,0,.5-.2.6-.3.2-.1.3-.3.4-.5.1-.2.2-.5.2-.8,0-.6-.2-1-.5-1.3s-.8-.4-1.4-.4-.6,0-.9.2-.5.3-.6.5-.3.5-.4.7c0,.3-.1.6-.1.9h-1.3c0-.5.1-1,.2-1.4s.4-.8.6-1.1.6-.5,1-.7c.4-.2.9-.3,1.4-.3s.9,0,1.3.2c.4.1.7.3,1,.5.3.2.5.5.7.9.2.4.2.8.2,1.3s-.1.9-.4,1.3c-.3.4-.6.7-1,.8h0c.6.2,1.1.5,1.4.9.3.5.5,1,.5,1.7s0,1-.3,1.4c-.2.4-.5.7-.8,1-.3.3-.7.5-1.2.6-.4.1-.9.2-1.4.2s-1,0-1.5-.2c-.4-.2-.8-.4-1.1-.7s-.5-.7-.7-1.1-.2-.9-.2-1.5h1.3c0,.7.2,1.3.6,1.7.4.4.9.7,1.7.7s.6,0,.9-.1c.3,0,.5-.2.7-.4s.4-.4.5-.6c.1-.3.2-.5.2-.9s0-.6-.2-.9-.3-.5-.5-.6c-.2-.2-.4-.3-.7-.4-.3,0-.6-.1-.9-.1s-.5,0-.8,0v-1.1s0,0,.1,0Z"/>
      <path class="st9" d="M54.4,455.9v1.7h-1.7v-1.7h1.7Z"/>
      <path class="st9" d="M59.7,457.6v-7.6h-2.8v-1c.4,0,.7,0,1,0,.3,0,.6-.2.9-.3.3-.2.5-.4.7-.6s.3-.6.4-1h1v10.6h-1.3Z"/>
      <path class="st9" d="M66.3,446.9v4h0c.2-.4.5-.7,1-.9.5-.2.9-.3,1.5-.3s1.1.1,1.6.3c.4.2.8.5,1.1.9s.5.8.7,1.3c.1.5.2,1,.2,1.6s0,1.1-.2,1.6c-.1.5-.4.9-.7,1.3-.3.4-.7.7-1.1.9-.4.2-1,.3-1.6.3s-.4,0-.6,0c-.2,0-.5-.1-.7-.2s-.4-.2-.7-.4c-.2-.2-.4-.3-.5-.6h0v1h-1.3v-10.7h1.3ZM70.9,452.6c0-.3-.2-.7-.4-.9-.2-.3-.4-.5-.8-.6-.3-.2-.7-.2-1.1-.2s-.8,0-1.1.3c-.3.2-.5.4-.7.7-.2.3-.3.6-.4.9,0,.4-.1.7-.1,1.1s0,.7.1,1.1c0,.4.2.7.4.9.2.3.4.5.8.7.3.2.7.2,1.1.2s.8,0,1.1-.3c.3-.2.5-.4.7-.7.2-.3.3-.6.4-1,0-.4.1-.7.1-1.1s0-.7-.1-1.1Z"/>
      <path class="st9" d="M75,449.8v1.2h0c.5-.9,1.4-1.4,2.5-1.4s.9,0,1.3.2.6.3.8.6.4.5.4.9.1.7.1,1.1v5.1h-1.3v-5.2c0-.5-.1-.9-.4-1.1-.3-.3-.7-.4-1.2-.4s-.7,0-1,.2-.5.3-.7.5c-.2.2-.3.5-.4.8,0,.3-.1.6-.1,1v4.4h-1.3v-7.8h1.2Z"/>
    </g>
    <g>
      <path class="st9" d="M40.4,121.6h1.9v4.3h4.9v-4.3h1.9v10.7h-1.9v-4.8h-4.9v4.8h-1.9v-10.7Z"/>
      <path class="st9" d="M52.4,128.9c0,.3,0,.6.1.9s.2.5.4.7c.2.2.4.4.6.5.3.1.6.2.9.2s.9-.1,1.2-.3.5-.5.7-1h1.6c0,.4-.2.8-.5,1.1-.2.3-.5.6-.8.8-.3.2-.7.4-1,.5s-.8.2-1.2.2c-.6,0-1.1-.1-1.6-.3-.5-.2-.9-.5-1.2-.8-.3-.4-.6-.8-.7-1.3-.2-.5-.2-1-.2-1.6s0-1.1.3-1.6c.2-.5.4-.9.8-1.3.3-.4.7-.7,1.2-.9.5-.2,1-.3,1.6-.3s1.2.1,1.6.4c.5.3.9.6,1.2,1,.3.4.6.9.7,1.4.1.5.2,1.1.1,1.7h-5.7ZM56.3,127.8c0-.3,0-.5-.2-.8,0-.2-.2-.5-.4-.7-.2-.2-.4-.3-.6-.4s-.5-.2-.8-.2-.6,0-.8.2-.5.2-.6.4c-.2.2-.3.4-.4.7-.1.2-.2.5-.2.8h4Z"/>
      <path class="st9" d="M65.9,130.6c0,.2,0,.4,0,.5,0,0,.2.1.3.1h.2c0,0,.1,0,.2,0v1.2c0,0-.1,0-.2,0,0,0-.2,0-.3,0s-.2,0-.3,0c-.1,0-.2,0-.3,0-.4,0-.6,0-.9-.2s-.4-.4-.5-.7c-.3.3-.8.6-1.3.7s-1,.2-1.4.2-.7,0-1-.1c-.3,0-.6-.2-.8-.4-.2-.2-.4-.4-.6-.7-.1-.3-.2-.6-.2-1s0-.9.3-1.2c.2-.3.4-.5.7-.7.3-.2.6-.3,1-.4.4,0,.7-.1,1.1-.2.3,0,.6-.1.9-.1.3,0,.5,0,.7-.1.2,0,.4-.2.5-.3s.2-.3.2-.6,0-.4-.2-.5-.2-.2-.4-.3c-.2,0-.3-.1-.5-.1-.2,0-.4,0-.5,0-.5,0-.9.1-1.2.3s-.5.5-.5.9h-1.7c0-.5.1-.9.4-1.2s.5-.6.8-.8c.3-.2.7-.3,1.1-.4.4,0,.8-.1,1.3-.1s.8,0,1.1.1c.4,0,.7.2,1,.4.3.2.5.4.7.7.2.3.3.6.3,1v4ZM64.1,128.4c-.3.2-.6.3-1,.3-.4,0-.8,0-1.1.2-.2,0-.4,0-.5.1-.2,0-.3.1-.5.2s-.2.2-.3.4c0,.2-.1.3-.1.6s0,.4.2.5c.1.1.2.2.4.3.2,0,.3.1.5.2.2,0,.4,0,.5,0s.4,0,.6,0c.2,0,.4-.1.6-.3.2-.1.4-.3.5-.5.1-.2.2-.4.2-.7v-1.3Z"/>
      <path class="st9" d="M67.7,121.6h1.7v10.7h-1.7v-10.7Z"/>
      <path class="st9" d="M70.5,124.6h1.3v-2.3h1.7v2.3h1.5v1.3h-1.5v4.1c0,.2,0,.3,0,.5s0,.2.1.3c0,0,.1.2.2.2.1,0,.3,0,.4,0s.2,0,.4,0c.1,0,.2,0,.4,0v1.3c-.2,0-.4,0-.6,0-.2,0-.4,0-.6,0-.5,0-.8,0-1.1-.1-.3,0-.5-.2-.6-.4-.2-.2-.3-.4-.3-.6,0-.2,0-.5,0-.9v-4.6h-1.3v-1.3Z"/>
      <path class="st9" d="M76.3,121.6h1.7v4h0c.2-.4.5-.6.9-.9.4-.2.9-.4,1.4-.4.9,0,1.5.2,2,.7.5.4.7,1.1.7,2v5.3h-1.7v-4.9c0-.6-.1-1.1-.4-1.3-.2-.3-.6-.4-1.1-.4s-.5,0-.8.2c-.2.1-.4.2-.6.4-.2.2-.3.4-.4.7,0,.2-.1.5-.1.8v4.6h-1.7v-10.7Z"/>
      <path class="st9" d="M95,131.1c-.4.5-.8.8-1.3,1.1s-1,.3-1.7.3-.9,0-1.4-.2c-.4-.1-.8-.4-1.1-.6-.3-.3-.5-.6-.7-1s-.2-.8-.2-1.3,0-.7.2-1,.3-.6.6-.8c.2-.3.5-.5.8-.7.3-.2.6-.4.9-.5-.1-.2-.3-.4-.4-.5-.1-.2-.2-.4-.3-.5s-.2-.4-.2-.6c0-.2,0-.4,0-.7,0-.4,0-.7.2-1s.3-.6.6-.8.5-.4.8-.5c.3-.1.7-.2,1-.2s.7,0,1,.2c.3.1.6.3.9.5.2.2.4.5.6.8.1.3.2.7.2,1.1s0,.6-.2.9-.2.5-.4.7c-.2.2-.4.4-.6.6s-.5.3-.7.5l1.7,2c0-.2.1-.4.2-.6,0-.2.1-.5.1-.9h1.5c0,.5-.1.9-.3,1.4-.1.4-.3.9-.6,1.2l2.1,2.5h-2.1l-1-1.2ZM92,127.4c-.2.1-.3.2-.5.3s-.4.2-.5.4c-.2.1-.3.3-.4.5-.1.2-.2.5-.2.8,0,.6.2,1,.5,1.3.3.3.7.5,1.2.5s.6,0,.8-.1c.2,0,.4-.2.6-.3.2-.1.3-.2.4-.4s.2-.3.3-.4l-2.1-2.6ZM92.7,122.6c-.3,0-.6.1-.8.3-.2.2-.3.5-.3.9s0,.3,0,.5c0,.2.1.3.2.4,0,.1.2.3.3.4.1.1.2.3.3.4.2-.1.3-.2.5-.3.1-.1.3-.2.4-.4.1-.1.2-.3.3-.5,0-.2.1-.4.1-.6,0-.4-.1-.6-.3-.9-.2-.2-.5-.4-.8-.4Z"/>
      <path class="st9" d="M43.3,144.6h2l4.1,10.7h-2l-1-2.8h-4.3l-1,2.8h-1.9l4.1-10.7ZM42.6,151.1h3.3l-1.6-4.6h0l-1.6,4.6Z"/>
      <path class="st9" d="M57.4,154.9c0,1.2-.3,2-1,2.6s-1.6.9-2.8.9-.8,0-1.2-.1-.8-.2-1.1-.4c-.3-.2-.6-.4-.8-.8-.2-.3-.4-.7-.4-1.1h1.7c0,.2.1.4.3.6.1.1.3.3.4.4.2,0,.3.1.5.2.2,0,.4,0,.6,0,.7,0,1.2-.2,1.5-.5.3-.3.5-.8.5-1.5v-1.2h0c-.2.4-.6.8-1,1-.4.2-.9.4-1.3.4s-1.1-.1-1.6-.3c-.4-.2-.8-.5-1.1-.9-.3-.4-.5-.8-.6-1.3-.1-.5-.2-1-.2-1.6s0-1,.2-1.5c.2-.5.4-.9.7-1.2.3-.4.7-.6,1.1-.8s.9-.3,1.5-.3.9.1,1.3.3c.4.2.7.5.9,1h0v-1.1h1.7v7.4ZM53.6,154c.4,0,.7,0,1-.2.3-.2.5-.4.6-.6.2-.3.3-.5.4-.9,0-.3.1-.7.1-1s0-.6-.1-1c0-.3-.2-.6-.4-.8-.2-.2-.4-.4-.6-.6-.3-.1-.6-.2-1-.2s-.7,0-1,.2c-.3.2-.5.4-.6.6-.2.3-.3.5-.3.9,0,.3-.1.6-.1,1s0,.6.1.9c0,.3.2.6.4.8.2.2.4.4.6.6.3.2.6.2.9.2Z"/>
      <path class="st9" d="M60.4,151.9c0,.3,0,.6.1.9s.2.5.4.7c.2.2.4.4.6.5.3.1.6.2.9.2s.9-.1,1.2-.3.5-.5.7-1h1.6c0,.4-.2.8-.5,1.1-.2.3-.5.6-.8.8-.3.2-.7.4-1,.5s-.8.2-1.2.2c-.6,0-1.1-.1-1.6-.3-.5-.2-.9-.5-1.2-.8-.3-.4-.6-.8-.7-1.3-.2-.5-.2-1-.2-1.6s0-1.1.3-1.6c.2-.5.4-.9.8-1.3.3-.4.7-.7,1.2-.9.5-.2,1-.3,1.6-.3s1.2.1,1.6.4c.5.3.9.6,1.2,1,.3.4.6.9.7,1.4.1.5.2,1.1.1,1.7h-5.7ZM64.4,150.8c0-.3,0-.5-.2-.8,0-.2-.2-.5-.4-.7-.2-.2-.4-.3-.6-.4s-.5-.2-.8-.2-.6,0-.8.2-.5.2-.6.4c-.2.2-.3.4-.4.7-.1.2-.2.5-.2.8h4Z"/>
      <path class="st9" d="M74.7,155.3h-1.6v-1h0c-.2.4-.6.8-1,1s-.9.3-1.4.3-1.1-.1-1.6-.3c-.5-.2-.8-.5-1.1-.9-.3-.4-.5-.8-.7-1.3-.1-.5-.2-1-.2-1.6s0-1.3.3-1.8c.2-.5.4-.9.8-1.3s.7-.6,1.1-.7c.4-.2.8-.2,1.2-.2s.5,0,.7,0c.2,0,.5.1.7.2.2.1.4.2.6.4.2.2.4.3.5.5h0v-4h1.7v10.7ZM68.8,151.5c0,.3,0,.7.1,1,0,.3.2.6.4.9s.4.4.7.6c.3.2.6.2,1,.2s.7,0,1-.2.5-.4.7-.6c.2-.3.3-.6.4-.9,0-.3.1-.7.1-1,0-.9-.2-1.5-.6-2-.4-.5-.9-.7-1.6-.7s-.7,0-1,.2-.5.4-.7.6c-.2.3-.3.6-.4.9,0,.3-.1.7-.1,1Z"/>
      <path class="st9" d="M86,150.2c0-.5-.3-.8-.6-1.1-.3-.2-.7-.4-1.2-.4s-.5,0-.7.1c-.2,0-.5.2-.7.4-.2.2-.4.5-.5.9-.1.4-.2.8-.2,1.4s0,.6.1,1c0,.3.2.6.4.9s.4.5.6.6c.3.2.6.2.9.2s.9-.2,1.2-.5c.3-.3.5-.7.6-1.3h1.7c-.2,1-.5,1.8-1.1,2.3-.6.5-1.4.8-2.4.8s-1.1-.1-1.6-.3c-.5-.2-.9-.5-1.2-.8-.3-.4-.6-.8-.7-1.3-.2-.5-.2-1-.2-1.6s0-1.1.2-1.6c.2-.5.4-1,.7-1.3s.7-.7,1.2-.9c.5-.2,1-.3,1.7-.3s.9,0,1.3.2c.4.1.8.3,1.1.5s.6.5.8.9.3.8.4,1.2h-1.7Z"/>
      <path class="st9" d="M95.6,153.6c0,.2,0,.4,0,.5,0,0,.2.1.3.1h.2c0,0,.1,0,.2,0v1.2c0,0-.1,0-.2,0,0,0-.2,0-.3,0s-.2,0-.3,0c-.1,0-.2,0-.3,0-.4,0-.6,0-.9-.2s-.4-.4-.5-.7c-.3.3-.8.6-1.3.7s-1,.2-1.4.2-.7,0-1-.1c-.3,0-.6-.2-.8-.4-.2-.2-.4-.4-.6-.7-.1-.3-.2-.6-.2-1s0-.9.3-1.2c.2-.3.4-.5.7-.7.3-.2.6-.3,1-.4.4,0,.7-.1,1.1-.2.3,0,.6-.1.9-.1.3,0,.5,0,.7-.1.2,0,.4-.2.5-.3s.2-.3.2-.6,0-.4-.2-.5-.2-.2-.4-.3c-.2,0-.3-.1-.5-.1-.2,0-.4,0-.5,0-.5,0-.9.1-1.2.3s-.5.5-.5.9h-1.7c0-.5.1-.9.4-1.2s.5-.6.8-.8c.3-.2.7-.3,1.1-.4.4,0,.8-.1,1.3-.1s.8,0,1.1.1c.4,0,.7.2,1,.4.3.2.5.4.7.7.2.3.3.6.3,1v4ZM93.9,151.4c-.3.2-.6.3-1,.3-.4,0-.8,0-1.1.2-.2,0-.4,0-.5.1-.2,0-.3.1-.5.2s-.2.2-.3.4c0,.2-.1.3-.1.6s0,.4.2.5c.1.1.2.2.4.3.2,0,.3.1.5.2.2,0,.4,0,.5,0s.4,0,.6,0c.2,0,.4-.1.6-.3.2-.1.4-.3.5-.5.1-.2.2-.4.2-.7v-1.3Z"/>
      <path class="st9" d="M97.4,147.6h1.6v1.5h0c0-.2.1-.4.3-.6.1-.2.3-.4.5-.5.2-.2.4-.3.7-.4.2-.1.5-.1.8-.1s.3,0,.4,0c0,0,.2,0,.2,0v1.6c-.1,0-.2,0-.4,0-.1,0-.2,0-.4,0-.3,0-.6,0-.8.2s-.5.3-.7.5-.3.5-.5.8-.2.7-.2,1.1v3.7h-1.7v-7.8Z"/>
      <path class="st9" d="M103.8,151.9c0,.3,0,.6.1.9s.2.5.4.7c.2.2.4.4.6.5.3.1.6.2.9.2s.9-.1,1.2-.3.5-.5.7-1h1.6c0,.4-.2.8-.5,1.1-.2.3-.5.6-.8.8-.3.2-.7.4-1,.5s-.8.2-1.2.2c-.6,0-1.1-.1-1.6-.3-.5-.2-.9-.5-1.2-.8-.3-.4-.6-.8-.7-1.3-.2-.5-.2-1-.2-1.6s0-1.1.3-1.6c.2-.5.4-.9.8-1.3.3-.4.7-.7,1.2-.9.5-.2,1-.3,1.6-.3s1.2.1,1.6.4c.5.3.9.6,1.2,1,.3.4.6.9.7,1.4.1.5.2,1.1.1,1.7h-5.7ZM107.8,150.8c0-.3,0-.5-.2-.8,0-.2-.2-.5-.4-.7-.2-.2-.4-.3-.6-.4s-.5-.2-.8-.2-.6,0-.8.2-.5.2-.6.4c-.2.2-.3.4-.4.7-.1.2-.2.5-.2.8h4Z"/>
      <path class="st9" d="M41.6,176.6c.4.4.9.6,1.5.7v-4c-.5-.1-1-.3-1.4-.4-.4-.2-.7-.3-1-.6s-.4-.5-.6-.8-.2-.7-.2-1.1,0-.9.2-1.2c.2-.4.4-.7.7-1,.3-.3.6-.5,1-.7.4-.2.8-.3,1.2-.3v-1h.8v1c.8.1,1.5.4,1.9.9s.8,1.2,1,2.1h-1.3c-.2-1-.8-1.6-1.7-1.7v3.7l.9.2c.2,0,.4.1.7.3s.5.3.8.5c.2.2.5.5.6.8s.3.7.3,1.2,0,.9-.2,1.3-.4.7-.7,1-.6.5-1,.7c-.4.2-.8.3-1.3.3v1.2h-.8v-1.2c-1-.1-1.8-.4-2.4-1-.6-.6-.9-1.4-1-2.5h1.3c0,.7.2,1.2.6,1.6ZM41.8,169.1c-.3.3-.5.7-.5,1.3s0,.5.1.7c0,.2.2.3.4.5.2.1.3.2.5.3.2,0,.4.2.7.2v-3.5c-.5,0-.9.2-1.2.5ZM44.6,177.2c.2,0,.4-.2.6-.4.2-.2.3-.4.4-.6,0-.2.1-.5.1-.8s0-.5-.1-.7c-.1-.2-.2-.4-.4-.5-.2-.1-.4-.3-.6-.4-.2,0-.5-.2-.8-.3v3.8c.3,0,.5,0,.8-.2Z"/>
      <path class="st9" d="M48.5,169.9c.1-.5.4-.9.7-1.2s.7-.6,1.1-.8c.4-.2.9-.3,1.5-.3s.9,0,1.3.2c.4.1.8.3,1.1.6.3.3.5.6.7,1,.2.4.3.8.3,1.3s0,.9-.2,1.2-.3.7-.6,1c-.2.3-.5.5-.8.8-.3.2-.6.4-1,.7-.3.2-.7.4-1,.6-.3.2-.6.4-.9.6-.3.2-.5.5-.7.7s-.3.5-.4.9h5.5v1.1h-6.9c0-.6.2-1.2.3-1.6.2-.4.4-.8.7-1.2.3-.3.6-.6.9-.9s.7-.5,1.1-.7c.4-.3.8-.5,1.2-.8.3-.2.6-.5.8-.7.2-.2.4-.5.5-.8.1-.3.2-.6.2-1s0-.6-.2-.8c-.1-.2-.3-.4-.4-.6-.2-.2-.4-.3-.7-.4s-.5-.1-.8-.1-.7,0-1,.2c-.3.2-.5.4-.7.6s-.3.5-.4.8c0,.3-.1.6,0,1h-1.3c0-.5,0-1,.2-1.5Z"/>
      <path class="st9" d="M58.9,176.6v1.7h-1.7v-1.7h1.7Z"/>
      <path class="st9" d="M61.4,169.2c.2-.3.4-.6.7-.8.3-.2.6-.4,1-.5s.8-.2,1.2-.2,1.1,0,1.5.2c.4.2.7.4,1,.6.3.3.4.5.6.9.1.3.2.7.2,1s-.1.9-.4,1.3-.6.7-1.1.9c.6.2,1.1.5,1.4,1s.5,1,.5,1.7,0,1-.3,1.4c-.2.4-.4.7-.8,1s-.7.5-1.1.6c-.4.1-.9.2-1.4.2s-1,0-1.4-.2c-.4-.1-.8-.3-1.1-.6-.3-.3-.6-.6-.8-1-.2-.4-.3-.9-.3-1.4s.2-1.2.5-1.6c.3-.5.8-.8,1.4-1-.5-.2-.8-.5-1.1-.9-.3-.4-.4-.8-.4-1.3s0-.8.3-1.2ZM62.7,176.8c.4.4,1,.5,1.6.5s.6,0,.9-.2c.3-.1.5-.2.7-.4.2-.2.3-.4.4-.7s.2-.5.2-.8,0-.6-.2-.8c-.1-.2-.3-.5-.5-.6-.2-.2-.4-.3-.7-.4s-.5-.2-.8-.2-.6,0-.9.1c-.3,0-.5.2-.7.4-.2.2-.4.4-.5.6-.1.2-.2.5-.2.8,0,.6.2,1.1.6,1.5ZM62.6,171.2c0,.2.2.4.4.5s.4.2.6.3c.2,0,.5.1.7.1.5,0,.9-.1,1.3-.5.3-.3.5-.7.5-1.3s-.2-.9-.5-1.2c-.3-.3-.8-.4-1.3-.4s-.5,0-.7.1-.4.2-.6.3-.3.3-.4.5c-.1.2-.1.4-.1.7s0,.5.1.8Z"/>
      <path class="st9" d="M70.8,167.6v4h0c.2-.4.5-.7,1-.9.5-.2.9-.3,1.5-.3s1.1.1,1.6.3c.4.2.8.5,1.1.9s.5.8.7,1.3c.1.5.2,1,.2,1.6s0,1.1-.2,1.6c-.1.5-.4.9-.7,1.3-.3.4-.7.7-1.1.9-.4.2-1,.3-1.6.3s-.4,0-.6,0c-.2,0-.5-.1-.7-.2-.2,0-.4-.2-.7-.4-.2-.2-.4-.3-.5-.6h0v1h-1.3v-10.7h1.3ZM75.3,173.3c0-.3-.2-.7-.4-.9-.2-.3-.4-.5-.8-.6-.3-.2-.7-.2-1.1-.2s-.8,0-1.1.3c-.3.2-.5.4-.7.7-.2.3-.3.6-.4.9,0,.4-.1.7-.1,1.1s0,.7.1,1.1c0,.4.2.7.4.9.2.3.4.5.8.7.3.2.7.2,1.1.2s.8,0,1.1-.3c.3-.2.5-.4.7-.7.2-.3.3-.6.4-1s.1-.7.1-1.1,0-.7-.1-1.1Z"/>
      <path class="st9" d="M79.5,170.6v1.2h0c.5-.9,1.4-1.4,2.5-1.4s.9,0,1.3.2c.3.1.6.3.8.6.2.2.4.5.4.9,0,.3.1.7.1,1.1v5.1h-1.3v-5.2c0-.5-.1-.9-.4-1.1-.3-.3-.7-.4-1.2-.4s-.7,0-1,.2-.5.3-.7.5c-.2.2-.3.5-.4.8,0,.3-.1.6-.1,1v4.4h-1.3v-7.8h1.2Z"/>
    </g>
    <g>
      <path class="st9" d="M277.3,256.9c-.9-.6-2-.9-3.2-.9s-2,.2-2.7.6c-.8.4-1.4.9-1.9,1.6-.5.7-.9,1.4-1.1,2.3-.2.9-.3,1.8-.3,2.7s.1,2,.3,2.9c.2.9.6,1.7,1.1,2.4.5.7,1.1,1.2,1.9,1.6.8.4,1.7.6,2.8.6s1.5-.1,2.1-.4,1.1-.6,1.6-1.1c.4-.5.8-1,1-1.6s.4-1.3.4-2.1h2.4c-.2,2.2-1,4-2.3,5.2-1.3,1.2-3.1,1.9-5.4,1.9s-2.6-.2-3.6-.7c-1-.5-1.9-1.1-2.6-2-.7-.8-1.2-1.8-1.5-3-.3-1.1-.5-2.4-.5-3.6s.2-2.5.5-3.7c.4-1.1.9-2.1,1.6-3s1.6-1.5,2.7-2c1.1-.5,2.3-.7,3.6-.7s1.8.1,2.6.4,1.6.6,2.2,1.1,1.2,1.1,1.6,1.8c.4.7.7,1.6.9,2.5h-2.4c-.3-1.3-.9-2.2-1.8-2.9Z"/>
      <path class="st9" d="M292.9,272.3v-2h0c-.5.8-1,1.4-1.7,1.8-.7.4-1.5.6-2.5.6s-1.6-.1-2.1-.3-1-.5-1.4-1c-.3-.4-.6-.9-.7-1.5-.1-.6-.2-1.2-.2-1.9v-8.5h2.1v8.8c0,.8.2,1.4.7,1.9.5.5,1.1.7,1.9.7s1.2,0,1.7-.3.9-.5,1.2-.9c.3-.4.6-.8.7-1.3.2-.5.2-1,.2-1.6v-7.3h2.1v12.9h-2Z"/>
      <path class="st9" d="M300,259.3v2.7h0c.5-1,1.1-1.8,1.9-2.3s1.7-.7,2.9-.7v2.2c-.9,0-1.6.1-2.2.4s-1.1.6-1.4,1c-.4.5-.6,1-.8,1.6s-.2,1.4-.2,2.2v5.8h-2.1v-12.9h2Z"/>
      <path class="st9" d="M308.3,259.3v2.7h0c.5-1,1.1-1.8,1.9-2.3s1.7-.7,2.9-.7v2.2c-.9,0-1.6.1-2.2.4s-1.1.6-1.4,1c-.4.5-.6,1-.8,1.6s-.2,1.4-.2,2.2v5.8h-2.1v-12.9h2Z"/>
      <path class="st9" d="M323.4,271.4c-1,.7-2.2,1.1-3.6,1.1s-1.9-.2-2.7-.5c-.8-.3-1.4-.8-1.9-1.4s-.9-1.3-1.2-2.1-.4-1.7-.4-2.7c0-1,.1-1.9.5-2.7.3-.8.7-1.5,1.3-2.1.5-.6,1.2-1.1,1.9-1.4.7-.3,1.6-.5,2.4-.5s2.1.2,2.9.7c.8.5,1.4,1.1,1.8,1.8.5.7.8,1.5.9,2.4.2.9.2,1.7.2,2.5h-9.7c0,.6,0,1.1.2,1.6s.4,1,.7,1.4c.3.4.8.7,1.3.9.5.2,1.1.3,1.8.3s1.6-.2,2.2-.6c.6-.4,1-1,1.1-1.9h2.1c-.3,1.5-.9,2.5-1.9,3.3ZM322.9,263.1c-.2-.5-.4-.8-.8-1.2s-.7-.6-1.1-.8c-.4-.2-.9-.3-1.5-.3s-1,0-1.5.3c-.4.2-.8.5-1.1.8-.3.3-.6.7-.8,1.2-.2.4-.3.9-.3,1.4h7.4c0-.5-.1-1-.3-1.4Z"/>
      <path class="st9" d="M329.7,259.3v2h0c.9-1.6,2.3-2.4,4.2-2.4s1.6.1,2.1.4c.6.2,1,.6,1.4,1,.3.4.6.9.7,1.5.1.6.2,1.2.2,1.9v8.5h-2.1v-8.8c0-.8-.2-1.4-.7-1.9-.5-.5-1.1-.7-1.9-.7s-1.2.1-1.7.3c-.5.2-.9.5-1.2.8-.3.4-.6.8-.7,1.3-.2.5-.2,1-.2,1.6v7.3h-2.1v-12.9h2Z"/>
      <path class="st9" d="M347.1,259.3v1.9h-2.6v8c0,.2,0,.4,0,.6,0,.1.1.3.2.3.1,0,.3.1.5.2.2,0,.5,0,.8,0h1v1.9h-1.6c-.5,0-1,0-1.4-.1-.4,0-.7-.2-.9-.4-.2-.2-.4-.5-.5-.9-.1-.4-.2-.9-.2-1.5v-8.2h-2.2v-1.9h2.2v-3.9h2.1v3.9h2.6Z"/>
      <path class="st9" d="M264.9,298.3l-4.1-15h0l-4.1,15h-2.5l-4.6-17.9h2.4l3.5,14.9h0l4-14.9h2.6l3.9,14.9h0l3.6-14.9h2.4l-4.8,17.9h-2.5Z"/>
      <path class="st9" d="M272.3,289.1c.3-.8.7-1.5,1.2-2.2.5-.6,1.2-1.1,2-1.4.8-.3,1.7-.5,2.7-.5s1.9.2,2.7.5c.8.4,1.4.8,2,1.4.5.6.9,1.3,1.2,2.2.3.8.4,1.7.4,2.7s-.1,1.8-.4,2.7-.7,1.5-1.2,2.1c-.5.6-1.2,1.1-2,1.4-.8.3-1.7.5-2.7.5s-1.9-.2-2.7-.5c-.8-.3-1.4-.8-2-1.4-.5-.6-.9-1.3-1.2-2.1s-.4-1.7-.4-2.7.1-1.8.4-2.7ZM274.4,293.9c.2.6.5,1.1.9,1.5.4.4.8.7,1.3.9s1,.3,1.6.3,1.1-.1,1.6-.3.9-.5,1.3-.9.7-.9.9-1.5c.2-.6.3-1.3.3-2.1s-.1-1.5-.3-2.1c-.2-.6-.5-1.1-.9-1.5-.4-.4-.8-.7-1.3-.9-.5-.2-1-.3-1.6-.3s-1.1.1-1.6.3c-.5.2-.9.5-1.3.9-.4.4-.7.9-.9,1.5-.2.6-.3,1.3-.3,2.1s.1,1.5.3,2.1Z"/>
      <path class="st9" d="M288.9,285.3v2.7h0c.5-1,1.1-1.8,1.9-2.3s1.7-.7,2.9-.7v2.2c-.9,0-1.6.1-2.2.4s-1.1.6-1.4,1c-.4.5-.6,1-.8,1.6s-.2,1.4-.2,2.2v5.8h-2.1v-12.9h2Z"/>
      <path class="st9" d="M297.5,280.4v10.6l5.9-5.6h2.9l-5.1,4.7,5.5,8.2h-2.7l-4.4-6.8-2,1.9v4.9h-2.1v-17.9h2.1Z"/>
      <path class="st9" d="M310.4,280.4v6.7h0c.4-.7.9-1.2,1.6-1.6.8-.3,1.6-.5,2.5-.5s1.9.2,2.6.6,1.4.9,1.9,1.5c.5.6.9,1.3,1.1,2.2.2.8.4,1.7.4,2.6s-.1,1.8-.4,2.6c-.2.8-.6,1.5-1.1,2.1s-1.1,1.1-1.9,1.4c-.7.4-1.6.5-2.6.5s-.7,0-1.1-.1-.8-.2-1.2-.3c-.4-.2-.7-.4-1.1-.6-.3-.3-.6-.6-.9-1h0v1.7h-2.1v-17.9h2.1ZM318.1,289.9c-.2-.6-.4-1.1-.7-1.5-.3-.5-.7-.8-1.2-1.1-.5-.3-1.1-.4-1.8-.4s-1.3.1-1.8.4-.9.7-1.2,1.1c-.3.5-.5,1-.7,1.6-.1.6-.2,1.2-.2,1.8s0,1.2.2,1.8c.1.6.4,1.1.7,1.6.3.5.7.8,1.3,1.1s1.1.4,1.9.4,1.3-.1,1.8-.4c.5-.3.9-.7,1.2-1.1.3-.5.5-1,.6-1.6.1-.6.2-1.2.2-1.9s0-1.2-.2-1.8Z"/>
      <path class="st9" d="M322.8,289.1c.3-.8.7-1.5,1.2-2.2.5-.6,1.2-1.1,2-1.4.8-.3,1.7-.5,2.7-.5s1.9.2,2.7.5c.8.4,1.4.8,2,1.4.5.6.9,1.3,1.2,2.2.3.8.4,1.7.4,2.7s-.1,1.8-.4,2.7-.7,1.5-1.2,2.1c-.5.6-1.2,1.1-2,1.4-.8.3-1.7.5-2.7.5s-1.9-.2-2.7-.5c-.8-.3-1.4-.8-2-1.4-.5-.6-.9-1.3-1.2-2.1s-.4-1.7-.4-2.7.1-1.8.4-2.7ZM324.9,293.9c.2.6.5,1.1.9,1.5.4.4.8.7,1.3.9s1,.3,1.6.3,1.1-.1,1.6-.3.9-.5,1.3-.9.7-.9.9-1.5c.2-.6.3-1.3.3-2.1s-.1-1.5-.3-2.1c-.2-.6-.5-1.1-.9-1.5-.4-.4-.8-.7-1.3-.9-.5-.2-1-.3-1.6-.3s-1.1.1-1.6.3c-.5.2-.9.5-1.3.9-.4.4-.7.9-.9,1.5-.2.6-.3,1.3-.3,2.1s.1,1.5.3,2.1Z"/>
      <path class="st9" d="M337.1,289.1c.3-.8.7-1.5,1.2-2.2.5-.6,1.2-1.1,2-1.4.8-.3,1.7-.5,2.7-.5s1.9.2,2.7.5c.8.4,1.4.8,2,1.4.5.6.9,1.3,1.2,2.2.3.8.4,1.7.4,2.7s-.1,1.8-.4,2.7-.7,1.5-1.2,2.1c-.5.6-1.2,1.1-2,1.4s-1.7.5-2.7.5-1.9-.2-2.7-.5c-.8-.3-1.4-.8-2-1.4s-.9-1.3-1.2-2.1-.4-1.7-.4-2.7.1-1.8.4-2.7ZM339.3,293.9c.2.6.5,1.1.9,1.5.4.4.8.7,1.3.9.5.2,1,.3,1.6.3s1.1-.1,1.6-.3c.5-.2.9-.5,1.3-.9.4-.4.7-.9.9-1.5.2-.6.3-1.3.3-2.1s-.1-1.5-.3-2.1c-.2-.6-.5-1.1-.9-1.5-.4-.4-.8-.7-1.3-.9-.5-.2-1-.3-1.6-.3s-1.1.1-1.6.3c-.5.2-.9.5-1.3.9-.4.4-.7.9-.9,1.5-.2.6-.3,1.3-.3,2.1s.1,1.5.3,2.1Z"/>
      <path class="st9" d="M354,280.4v10.6l5.9-5.6h2.9l-5.1,4.7,5.5,8.2h-2.7l-4.4-6.8-2,1.9v4.9h-2.1v-17.9h2.1Z"/>
    </g>
    <g>
      <polyline class="st2" points="298.7 128.8 298.4 51.7 269.2 51.7"/>
      <path class="st1" d="M295.4,137.8c2,1.9,5.2,1.8,7.1-.3s1.8-5.2-.3-7.1-5.2-1.8-7.1.3-1.8,5.2.3,7.1h0Z"/>
    </g>
    <g>
      <path class="st9" d="M220.3,46.3h5.1c1.2,0,2.1.3,2.7.8.6.5.9,1.2.9,2.1s0,.9-.2,1.3c-.1.3-.3.6-.5.8s-.4.4-.6.4c-.2,0-.3.1-.4.2h0c.2,0,.3.1.5.2s.4.2.5.4c.2.2.3.4.4.7.1.3.2.6.2,1.1,0,.6,0,1.2.1,1.7,0,.5.2.9.4,1.1h-2c-.1-.2-.2-.5-.2-.8,0-.3,0-.5,0-.8,0-.5,0-.9,0-1.3s-.2-.6-.3-.9c-.2-.2-.4-.4-.7-.5-.3-.1-.6-.2-1.1-.2h-2.8v4.4h-1.9v-10.7ZM222.2,51.2h3.1c.6,0,1.1-.1,1.4-.4.3-.3.5-.7.5-1.3s0-.6-.1-.8c-.1-.2-.2-.4-.4-.5s-.4-.2-.6-.2c-.2,0-.5,0-.7,0h-3v3.3Z"/>
      <path class="st9" d="M232,53.6c0,.3,0,.6.1.9s.2.5.4.7c.2.2.4.4.6.5.3.1.6.2.9.2s.9-.1,1.2-.3.5-.5.7-1h1.6c0,.4-.2.8-.5,1.1-.2.3-.5.6-.8.8-.3.2-.7.4-1,.5s-.8.2-1.2.2c-.6,0-1.1-.1-1.6-.3-.5-.2-.9-.5-1.2-.8-.3-.4-.6-.8-.7-1.3-.2-.5-.2-1-.2-1.6s0-1.1.3-1.6c.2-.5.4-.9.8-1.3.3-.4.7-.7,1.2-.9.5-.2,1-.3,1.6-.3s1.2.1,1.6.4c.5.3.9.6,1.2,1,.3.4.6.9.7,1.4.1.5.2,1.1.1,1.7h-5.7ZM236,52.4c0-.3,0-.5-.2-.8,0-.2-.2-.5-.4-.7-.2-.2-.4-.3-.6-.4s-.5-.2-.8-.2-.6,0-.8.2-.5.2-.6.4c-.2.2-.3.4-.4.7-.1.2-.2.5-.2.8h4Z"/>
      <path class="st9" d="M238.2,49.3h1.3v-2.3h1.7v2.3h1.5v1.3h-1.5v4.1c0,.2,0,.3,0,.5s0,.2.1.3c0,0,.1.2.2.2.1,0,.3,0,.4,0s.2,0,.4,0c.1,0,.2,0,.4,0v1.3c-.2,0-.4,0-.6,0-.2,0-.4,0-.6,0-.5,0-.8,0-1.1-.1-.3,0-.5-.2-.6-.4-.2-.2-.3-.4-.3-.6,0-.2,0-.5,0-.9v-4.6h-1.3v-1.3Z"/>
      <path class="st9" d="M250.5,55.3c0,.2,0,.4,0,.5,0,0,.2.1.3.1h.2c0,0,.1,0,.2,0v1.2c0,0-.1,0-.2,0,0,0-.2,0-.3,0s-.2,0-.3,0c-.1,0-.2,0-.3,0-.4,0-.6,0-.9-.2s-.4-.4-.5-.7c-.3.3-.8.6-1.3.7s-1,.2-1.4.2-.7,0-1-.1c-.3,0-.6-.2-.8-.4-.2-.2-.4-.4-.6-.7-.1-.3-.2-.6-.2-1s0-.9.3-1.2c.2-.3.4-.5.7-.7.3-.2.6-.3,1-.4.4,0,.7-.1,1.1-.2.3,0,.6-.1.9-.1.3,0,.5,0,.7-.1.2,0,.4-.2.5-.3s.2-.3.2-.6,0-.4-.2-.5-.2-.2-.4-.3c-.2,0-.3-.1-.5-.1-.2,0-.4,0-.5,0-.5,0-.9.1-1.2.3s-.5.5-.5.9h-1.7c0-.5.1-.9.4-1.2s.5-.6.8-.8c.3-.2.7-.3,1.1-.4.4,0,.8-.1,1.3-.1s.8,0,1.1.1c.4,0,.7.2,1,.4.3.2.5.4.7.7.2.3.3.6.3,1v4ZM248.8,53.1c-.3.2-.6.3-1,.3-.4,0-.8,0-1.1.2-.2,0-.4,0-.5.1-.2,0-.3.1-.5.2s-.2.2-.3.4c0,.2-.1.3-.1.6s0,.4.2.5c.1.1.2.2.4.3.2,0,.3.1.5.2.2,0,.4,0,.5,0s.4,0,.6,0c.2,0,.4-.1.6-.3.2-.1.4-.3.5-.5.1-.2.2-.4.2-.7v-1.3Z"/>
      <path class="st9" d="M252.4,46.3h1.7v1.6h-1.7v-1.6ZM252.4,49.3h1.7v7.8h-1.7v-7.8Z"/>
      <path class="st9" d="M256,46.3h1.7v10.7h-1.7v-10.7Z"/>
      <path class="st9" d="M221.5,78.3c.4.4.9.6,1.5.7v-4c-.5-.1-1-.3-1.4-.4-.4-.2-.7-.3-1-.6s-.4-.5-.6-.8-.2-.7-.2-1.1,0-.9.2-1.2c.2-.4.4-.7.7-1,.3-.3.6-.5,1-.7.4-.2.8-.3,1.2-.3v-1h.8v1c.8.1,1.5.4,1.9.9s.8,1.2,1,2.1h-1.3c-.2-1-.8-1.6-1.7-1.7v3.7l.9.2c.2,0,.4.1.7.3s.5.3.8.5c.2.2.5.5.6.8s.3.7.3,1.2,0,.9-.2,1.3-.4.7-.7,1-.6.5-1,.7c-.4.2-.8.3-1.3.3v1.2h-.8v-1.2c-1-.1-1.8-.4-2.4-1-.6-.6-.9-1.4-1-2.5h1.3c0,.7.2,1.2.6,1.6ZM221.7,70.8c-.3.3-.5.7-.5,1.3s0,.5.1.7c0,.2.2.3.4.5.2.1.3.2.5.3.2,0,.4.2.7.2v-3.5c-.5,0-.9.2-1.2.5ZM224.5,78.9c.2,0,.4-.2.6-.4.2-.2.3-.4.4-.6,0-.2.1-.5.1-.8s0-.5-.1-.7c-.1-.2-.2-.4-.4-.5-.2-.1-.4-.3-.6-.4-.2,0-.5-.2-.8-.3v3.8c.3,0,.5,0,.8-.2Z"/>
      <path class="st9" d="M228.2,73.6c0-.4,0-.8.1-1.2s.2-.8.3-1.1c.2-.4.4-.7.6-.9.3-.3.6-.5,1-.6.4-.2.9-.2,1.4-.2s1,0,1.4.2c.4.2.7.4,1,.6.3.3.5.6.6.9.1.4.3.7.3,1.1s.1.8.2,1.2c0,.4,0,.8,0,1.2s0,.8,0,1.2c0,.4,0,.8-.2,1.2s-.2.8-.3,1.1-.4.7-.6.9c-.3.3-.6.5-1,.6-.4.2-.9.2-1.4.2s-1,0-1.4-.2c-.4-.2-.7-.4-1-.6-.3-.3-.5-.6-.6-.9-.1-.4-.3-.7-.3-1.1s-.1-.8-.1-1.2c0-.4,0-.8,0-1.2s0-.8,0-1.2ZM229.5,76.1c0,.5.1,1,.2,1.4.1.4.4.8.7,1.1.3.3.7.5,1.3.5s1-.2,1.3-.5c.3-.3.5-.7.7-1.1.1-.4.2-.9.2-1.4s0-.9,0-1.3,0-.5,0-.9c0-.3,0-.6,0-.9s-.1-.6-.2-.9c0-.3-.2-.6-.4-.8s-.4-.4-.6-.5-.6-.2-.9-.2-.7,0-.9.2-.5.3-.6.5-.3.5-.4.8c0,.3-.1.6-.2.9s0,.6,0,.9,0,.6,0,.9c0,.4,0,.8,0,1.3Z"/>
      <path class="st9" d="M238.8,78.3v1.7h-1.7v-1.7h1.7Z"/>
      <path class="st9" d="M240.9,71.6c.1-.5.4-.9.7-1.2s.7-.6,1.1-.8c.4-.2.9-.3,1.5-.3s.9,0,1.3.2c.4.1.8.3,1.1.6.3.3.5.6.7,1,.2.4.3.8.3,1.3s0,.9-.2,1.2-.3.7-.6,1c-.2.3-.5.5-.8.8-.3.2-.6.4-1,.7-.3.2-.7.4-1,.6-.3.2-.6.4-.9.6-.3.2-.5.5-.7.7s-.3.5-.4.9h5.5v1.1h-6.9c0-.6.2-1.2.3-1.6.2-.4.4-.8.7-1.2.3-.3.6-.6.9-.9s.7-.5,1.1-.7c.4-.3.8-.5,1.2-.8.3-.2.6-.5.8-.7.2-.2.4-.5.5-.8.1-.3.2-.6.2-1s0-.6-.2-.8c-.1-.2-.3-.4-.4-.6-.2-.2-.4-.3-.7-.4s-.5-.1-.8-.1-.7,0-1,.2c-.3.2-.5.4-.7.6s-.3.5-.4.8c0,.3-.1.6,0,1h-1.3c0-.5,0-1,.2-1.5Z"/>
      <path class="st9" d="M250.7,69.3v4h0c.2-.4.5-.7,1-.9.5-.2.9-.3,1.5-.3s1.1.1,1.6.3c.4.2.8.5,1.1.9s.5.8.7,1.3c.1.5.2,1,.2,1.6s0,1.1-.2,1.6c-.1.5-.4.9-.7,1.3-.3.4-.7.7-1.1.9-.4.2-1,.3-1.6.3s-.4,0-.6,0c-.2,0-.5-.1-.7-.2-.2,0-.4-.2-.7-.4-.2-.2-.4-.3-.5-.6h0v1h-1.3v-10.7h1.3ZM255.2,75c0-.3-.2-.7-.4-.9-.2-.3-.4-.5-.8-.6-.3-.2-.7-.2-1.1-.2s-.8,0-1.1.3c-.3.2-.5.4-.7.7-.2.3-.3.6-.4.9,0,.4-.1.7-.1,1.1s0,.7.1,1.1c0,.4.2.7.4.9.2.3.4.5.8.7.3.2.7.2,1.1.2s.8,0,1.1-.3c.3-.2.5-.4.7-.7.2-.3.3-.6.4-1s.1-.7.1-1.1,0-.7-.1-1.1Z"/>
      <path class="st9" d="M259.4,72.3v1.2h0c.5-.9,1.4-1.4,2.5-1.4s.9,0,1.3.2c.3.1.6.3.8.6.2.2.4.5.4.9,0,.3.1.7.1,1.1v5.1h-1.3v-5.2c0-.5-.1-.9-.4-1.1-.3-.3-.7-.4-1.2-.4s-.7,0-1,.2-.5.3-.7.5c-.2.2-.3.5-.4.8,0,.3-.1.6-.1,1v4.4h-1.3v-7.8h1.2Z"/>
    </g>
  </g>
</svg>